<?xml version="1.0" encoding="UTF-8" standalone="no"?>
<!-- Generator: Adobe Illustrator 26.0.1, SVG Export Plug-In . SVG Version: 6.00 Build 0)  -->

<svg
   version="1.1"
   id="Layer_1"
   x="0px"
   y="0px"
   viewBox="0 0 2304 1440"
   style="enable-background:new 0 0 2304 1440;"
   xml:space="preserve"
   sodipodi:docname="16RoundLamp.svg"
   inkscape:version="1.1 (c68e22c387, 2021-05-23)"
   xmlns:inkscape="http://www.inkscape.org/namespaces/inkscape"
   xmlns:sodipodi="http://sodipodi.sourceforge.net/DTD/sodipodi-0.dtd"
   xmlns="http://www.w3.org/2000/svg"
   xmlns:svg="http://www.w3.org/2000/svg"><defs
   id="defs62" /><sodipodi:namedview
   id="namedview60"
   pagecolor="#ffffff"
   bordercolor="#666666"
   borderopacity="1.0"
   inkscape:pageshadow="2"
   inkscape:pageopacity="0.0"
   inkscape:pagecheckerboard="0"
   showgrid="false"
   inkscape:zoom="0.5"
   inkscape:cx="1461"
   inkscape:cy="567"
   inkscape:window-width="1920"
   inkscape:window-height="1001"
   inkscape:window-x="1911"
   inkscape:window-y="-9"
   inkscape:window-maximized="1"
   inkscape:current-layer="Layer_1" />
<style
   type="text/css"
   id="style2">
	.st0{fill:none;stroke:#010101;stroke-width:7.200000e-02;stroke-linecap:round;stroke-linejoin:round;stroke-miterlimit:11.3386;}
	.st1{fill:none;stroke:#010101;stroke-width:7.200000e-02;stroke-miterlimit:11.3386;}
	.st2{fill:none;stroke:#010101;stroke-width:7.200000e-02;stroke-miterlimit:288;}
	.st3{fill:none;stroke:#010101;stroke-width:1.3264;stroke-miterlimit:288;}
	.st4{fill:none;stroke:#010101;stroke-width:1.0898;stroke-miterlimit:11.3386;}
	.st5{fill:none;stroke:#010101;stroke-width:8.846362e-02;stroke-miterlimit:11.3386;}
	.st6{fill:none;stroke:#010101;stroke-width:1.0473;stroke-miterlimit:11.3386;}
	.st7{fill:#010101;}
	.st8{font-family:'CenturyGothic-Bold';}
	.st9{font-size:14px;}
	.st10{font-size:19.2282px;}
	.st11{font-family:'CenturyGothic';}
	.st12{font-size:13.9939px;}
	.st13{font-size:14.4562px;}
	.st14{font-size:16.402px;}
	.st15{font-size:16.4518px;}
	.st16{font-size:15.0219px;}
	.st17{font-size:16.0104px;}
	.st18{font-size:15.9604px;}
	.st19{font-family:'CenturyGothic-BoldItalic';}
	.st20{font-size:40.7412px;}
	.st21{fill:none;}
</style>
<g
   id="p-1">
	<path
   id="path15"
   class="st0"
   d="M64.2,855.1h22.4c0.3,0,0-0.3,0,0v8.2c0,0.2,0.1,0.3,0.3,0.3h17c0.2,0,0.3-0.1,0.3-0.3v-8.2   c0-0.3-0.3,0,0,0h16.4c0.3,0,0-0.3,0,0v8.2c0,0.2,0.1,0.3,0.3,0.3h17c0.2,0,0.3-0.1,0.3-0.3v-8.2c0-0.3-0.3,0,0,0h16.4   c0.3,0,0-0.3,0,0v8.2c0,0.2,0.1,0.3,0.3,0.3h17c0.2,0,0.3-0.1,0.3-0.3v-8.2c0-0.3-0.3,0,0,0h16.4c0.3,0,0-0.3,0,0v8.2   c0,0.2,0.1,0.3,0.3,0.3h17c0.2,0,0.3-0.1,0.3-0.3v-8.2c0-0.3-0.3,0,0,0h16.4c0.3,0,0-0.3,0,0v8.2c0,0.2,0.1,0.3,0.3,0.3h17   c0.2,0,0.3-0.1,0.3-0.3v-8.2c0-0.3-0.3,0,0,0h16.4c0.3,0,0-0.3,0,0v8.2c0,0.2,0.1,0.3,0.3,0.3h17c0.2,0,0.3-0.1,0.3-0.3v-8.2   c0-0.3-0.3,0,0,0h22.4h22.4c0.3,0,0-0.3,0,0v8.2c0,0.2,0.1,0.3,0.3,0.3h17c0.2,0,0.3-0.1,0.3-0.3v-8.2c0-0.3-0.3,0,0,0h16.4   c0.3,0,0-0.3,0,0v8.2c0,0.2,0.1,0.3,0.3,0.3h17c0.2,0,0.3-0.1,0.3-0.3v-8.2c0-0.3-0.3,0,0,0h16.4c0.3,0,0-0.3,0,0v8.2   c0,0.2,0.1,0.3,0.3,0.3h17c0.2,0,0.3-0.1,0.3-0.3v-8.2c0-0.3-0.3,0,0,0h16.4c0.3,0,0-0.3,0,0v8.2c0,0.2,0.1,0.3,0.3,0.3h17   c0.2,0,0.3-0.1,0.3-0.3v-8.2c0-0.3-0.3,0,0,0h16.4c0.3,0,0-0.3,0,0v8.2c0,0.2,0.1,0.3,0.3,0.3h17c0.2,0,0.3-0.1,0.3-0.3v-8.2   c0-0.3-0.3,0,0,0h16.4c0.3,0,0-0.3,0,0v8.2c0,0.2,0.1,0.3,0.3,0.3h17c0.2,0,0.3-0.1,0.3-0.3v-8.2c0-0.3-0.3,0,0,0h22.4   c7.5,0,14.9-2,21.4-5.7c6.5-3.8,11.9-9.2,15.7-15.7c3.8-6.5,5.7-13.9,5.7-21.4v-30.9c0-0.3-0.3,0,0,0h8.2c0.2,0,0.3-0.1,0.3-0.3   v-17c0-0.2-0.1-0.3-0.3-0.3h-8.2c-0.3,0,0,0.3,0,0v-16.4c0-0.3-0.3,0,0,0h8.2c0.2,0,0.3-0.1,0.3-0.3v-17c0-0.2-0.1-0.3-0.3-0.3   h-8.2c-0.3,0,0,0.3,0,0v-16.4c0-0.3-0.3,0,0,0h8.2c0.2,0,0.3-0.1,0.3-0.3v-17c0-0.2-0.1-0.3-0.3-0.3h-8.2c-0.3,0,0,0.3,0,0v-16.4   c0-0.3-0.3,0,0,0h8.2c0.2,0,0.3-0.1,0.3-0.3v-17c0-0.2-0.1-0.3-0.3-0.3h-8.2c-0.3,0,0,0.3,0,0v-30.9c0-7.5-2-14.9-5.7-21.4   c-3.8-6.5-9.2-11.9-15.7-15.7c-6.5-3.8-13.9-5.7-21.4-5.7h-19.6c-0.3,0,0,0.3,0,0v-8.2c0-0.2-0.1-0.3-0.3-0.3h-17   c-0.2,0-0.3,0.1-0.3,0.3v8.2c0,0.3,0.3,0,0,0h-16.4c-0.3,0,0,0.3,0,0v-8.2c0-0.2-0.1-0.3-0.3-0.3h-17c-0.2,0-0.3,0.1-0.3,0.3v8.2   c0,0.3,0.3,0,0,0h-16.4c-0.3,0,0,0.3,0,0v-8.2c0-0.2-0.1-0.3-0.3-0.3h-17c-0.2,0-0.3,0.1-0.3,0.3v8.2c0,0.3,0.3,0,0,0h-16.4   c-0.3,0,0,0.3,0,0v-8.2c0-0.2-0.1-0.3-0.3-0.3h-17c-0.2,0-0.3,0.1-0.3,0.3v8.2c0,0.3,0.3,0,0,0h-16.4c-0.3,0,0,0.3,0,0v-8.2   c0-0.2-0.1-0.3-0.3-0.3h-17c-0.2,0-0.3,0.1-0.3,0.3v8.2c0,0.3,0.3,0,0,0h-16.4c-0.3,0,0,0.3,0,0v-8.2c0-0.2-0.1-0.3-0.3-0.3h-17   c-0.2,0-0.3,0.1-0.3,0.3v8.2c0,0.3,0.3,0,0,0h-16.4c-0.3,0,0,0.3,0,0v-8.2c0-0.2-0.1-0.3-0.3-0.3h-17c-0.2,0-0.3,0.1-0.3,0.3v8.2   c0,0.3,0.3,0,0,0h-16.4c-0.3,0,0,0.3,0,0v-8.2c0-0.2-0.1-0.3-0.3-0.3h-17c-0.2,0-0.3,0.1-0.3,0.3v8.2c0,0.3,0.3,0,0,0h-16.4   c-0.3,0,0,0.3,0,0v-8.2c0-0.2-0.1-0.3-0.3-0.3h-17c-0.2,0-0.3,0.1-0.3,0.3v8.2c0,0.3,0.3,0,0,0h-16.4c-0.3,0,0,0.3,0,0v-8.2   c0-0.2-0.1-0.3-0.3-0.3h-17c-0.2,0-0.3,0.1-0.3,0.3v8.2c0,0.3,0.3,0,0,0h-16.4c-0.3,0,0,0.3,0,0v-8.2c0-0.2-0.1-0.3-0.3-0.3h-17   c-0.2,0-0.3,0.1-0.3,0.3v8.2c0,0.3,0.3,0,0,0h-16.4c-0.3,0,0,0.3,0,0v-8.2c0-0.2-0.1-0.3-0.3-0.3h-17c-0.2,0-0.3,0.1-0.3,0.3v8.2   c0,0.3,0.3,0,0,0h-16.4c-0.3,0,0,0.3,0,0v-8.2c0-0.2-0.1-0.3-0.3-0.3h-17c-0.2,0-0.3,0.1-0.3,0.3v8.2c0,0.3,0.3,0,0,0H64.2   c-7.5,0-14.9,2-21.4,5.7s-11.9,9.2-15.7,15.7s-5.7,13.9-5.7,21.4v30.9c0,0.3,0.3,0,0,0h-8.2c-0.2,0-0.3,0.1-0.3,0.3v17   c0,0.2,0.1,0.3,0.3,0.3h8.2c0.3,0,0-0.3,0,0v16.4c0,0.3,0.3,0,0,0h-8.2c-0.2,0-0.3,0.1-0.3,0.3v17c0,0.2,0.1,0.3,0.3,0.3h8.2   c0.3,0,0-0.3,0,0v16.4c0,0.3,0.3,0,0,0h-8.2c-0.2,0-0.3,0.1-0.3,0.3v17c0,0.2,0.1,0.3,0.3,0.3h8.2c0.3,0,0-0.3,0,0v16.4   c0,0.3,0.3,0,0,0h-8.2c-0.2,0-0.3,0.1-0.3,0.3v17c0,0.2,0.1,0.3,0.3,0.3h8.2c0.3,0,0-0.3,0,0v30.9c0,7.5,2,14.9,5.7,21.4   c3.8,6.5,9.2,11.9,15.7,15.7C49.3,853.1,56.7,855.1,64.2,855.1" />
</g>
<path
   id="path20"
   class="st0"
   d="M636,837.8h464.9c4.5,0,9-1.2,12.9-3.5c3.9-2.3,7.2-5.5,9.4-9.4c2.3-3.9,3.5-8.4,3.5-12.9V630.5  c0-4.5-1.2-9-3.5-12.9c-2.3-3.9-5.5-7.2-9.4-9.4c-3.9-2.3-8.4-3.5-12.9-3.5H636c-4.5,0-9,1.2-12.9,3.5c-3.9,2.3-7.2,5.5-9.4,9.4  c-2.3,3.9-3.5,8.4-3.5,12.9V812c0,4.5,1.2,9,3.5,12.9c2.3,3.9,5.5,7.2,9.4,9.4C627,836.6,631.4,837.8,636,837.8z M636,855.1h22.4  c0.3,0,0-0.3,0,0v8.2c0,0.2,0.1,0.3,0.3,0.3h17c0.2,0,0.3-0.1,0.3-0.3v-8.2c0-0.3-0.3,0,0,0h16.4c0.3,0,0-0.3,0,0v8.2  c0,0.2,0.1,0.3,0.3,0.3h17c0.2,0,0.3-0.1,0.3-0.3v-8.2c0-0.3-0.3,0,0,0h16.4c0.3,0,0-0.3,0,0v8.2c0,0.2,0.1,0.3,0.3,0.3h17  c0.2,0,0.3-0.1,0.3-0.3v-8.2c0-0.3-0.3,0,0,0h16.4c0.3,0,0-0.3,0,0v8.2c0,0.2,0.1,0.3,0.3,0.3h17c0.2,0,0.3-0.1,0.3-0.3v-8.2  c0-0.3-0.3,0,0,0h16.4c0.3,0,0-0.3,0,0v8.2c0,0.2,0.1,0.3,0.3,0.3h17c0.2,0,0.3-0.1,0.3-0.3v-8.2c0-0.3-0.3,0,0,0h16.4  c0.3,0,0-0.3,0,0v8.2c0,0.2,0.1,0.3,0.3,0.3h17c0.2,0,0.3-0.1,0.3-0.3v-8.2c0-0.3-0.3,0,0,0h22.4h22.4c0.3,0,0-0.3,0,0v8.2  c0,0.2,0.1,0.3,0.3,0.3h17c0.2,0,0.3-0.1,0.3-0.3v-8.2c0-0.3-0.3,0,0,0h16.4c0.3,0,0-0.3,0,0v8.2c0,0.2,0.1,0.3,0.3,0.3h17  c0.2,0,0.3-0.1,0.3-0.3v-8.2c0-0.3-0.3,0,0,0h16.4c0.3,0,0-0.3,0,0v8.2c0,0.2,0.1,0.3,0.3,0.3h17c0.2,0,0.3-0.1,0.3-0.3v-8.2  c0-0.3-0.3,0,0,0h16.4c0.3,0,0-0.3,0,0v8.2c0,0.2,0.1,0.3,0.3,0.3h17c0.2,0,0.3-0.1,0.3-0.3v-8.2c0-0.3-0.3,0,0,0h16.4  c0.3,0,0-0.3,0,0v8.2c0,0.2,0.1,0.3,0.3,0.3h17c0.2,0,0.3-0.1,0.3-0.3v-8.2c0-0.3-0.3,0,0,0h16.4c0.3,0,0-0.3,0,0v8.2  c0,0.2,0.1,0.3,0.3,0.3h17c0.2,0,0.3-0.1,0.3-0.3v-8.2c0-0.3-0.3,0,0,0h22.4c7.5,0,14.9-2,21.4-5.7c6.5-3.8,11.9-9.2,15.7-15.7  c3.8-6.5,5.7-13.9,5.7-21.4v-30.9c0-0.3-0.3,0,0,0h8.2c0.2,0,0.3-0.1,0.3-0.3v-17c0-0.2-0.1-0.3-0.3-0.3h-8.2c-0.3,0,0,0.3,0,0  v-16.4c0-0.3-0.3,0,0,0h8.2c0.2,0,0.3-0.1,0.3-0.3v-17c0-0.2-0.1-0.3-0.3-0.3h-8.2c-0.3,0,0,0.3,0,0v-16.4c0-0.3-0.3,0,0,0h8.2  c0.2,0,0.3-0.1,0.3-0.3v-17c0-0.2-0.1-0.3-0.3-0.3h-8.2c-0.3,0,0,0.3,0,0v-16.4c0-0.3-0.3,0,0,0h8.2c0.2,0,0.3-0.1,0.3-0.3v-17  c0-0.2-0.1-0.3-0.3-0.3h-8.2c-0.3,0,0,0.3,0,0v-30.9c0-7.5-2-14.9-5.7-21.4s-9.2-11.9-15.7-15.7c-6.5-3.8-13.9-5.7-21.4-5.7h-19.6  c-0.3,0,0,0.3,0,0v-8.2c0-0.2-0.1-0.3-0.3-0.3h-17c-0.2,0-0.3,0.1-0.3,0.3v8.2c0,0.3,0.3,0,0,0h-16.4c-0.3,0,0,0.3,0,0v-8.2  c0-0.2-0.1-0.3-0.3-0.3h-17c-0.2,0-0.3,0.1-0.3,0.3v8.2c0,0.3,0.3,0,0,0h-16.4c-0.3,0,0,0.3,0,0v-8.2c0-0.2-0.1-0.3-0.3-0.3h-17  c-0.2,0-0.3,0.1-0.3,0.3v8.2c0,0.3,0.3,0,0,0h-16.4c-0.3,0,0,0.3,0,0v-8.2c0-0.2-0.1-0.3-0.3-0.3h-17c-0.2,0-0.3,0.1-0.3,0.3v8.2  c0,0.3,0.3,0,0,0h-16.4c-0.3,0,0,0.3,0,0v-8.2c0-0.2-0.1-0.3-0.3-0.3h-17c-0.2,0-0.3,0.1-0.3,0.3v8.2c0,0.3,0.3,0,0,0h-16.4  c-0.3,0,0,0.3,0,0v-8.2c0-0.2-0.1-0.3-0.3-0.3h-17c-0.2,0-0.3,0.1-0.3,0.3v8.2c0,0.3,0.3,0,0,0h-16.4c-0.3,0,0,0.3,0,0v-8.2  c0-0.2-0.1-0.3-0.3-0.3h-17c-0.2,0-0.3,0.1-0.3,0.3v8.2c0,0.3,0.3,0,0,0h-16.4c-0.3,0,0,0.3,0,0v-8.2c0-0.2-0.1-0.3-0.3-0.3h-17  c-0.2,0-0.3,0.1-0.3,0.3v8.2c0,0.3,0.3,0,0,0h-16.4c-0.3,0,0,0.3,0,0v-8.2c0-0.2-0.1-0.3-0.3-0.3h-17c-0.2,0-0.3,0.1-0.3,0.3v8.2  c0,0.3,0.3,0,0,0h-16.4c-0.3,0,0,0.3,0,0v-8.2c0-0.2-0.1-0.3-0.3-0.3h-17c-0.2,0-0.3,0.1-0.3,0.3v8.2c0,0.3,0.3,0,0,0h-16.4  c-0.3,0,0,0.3,0,0v-8.2c0-0.2-0.1-0.3-0.3-0.3h-17c-0.2,0-0.3,0.1-0.3,0.3v8.2c0,0.3,0.3,0,0,0h-16.4c-0.3,0,0,0.3,0,0v-8.2  c0-0.2-0.1-0.3-0.3-0.3h-17c-0.2,0-0.3,0.1-0.3,0.3v8.2c0,0.3,0.3,0,0,0h-16.4c-0.3,0,0,0.3,0,0v-8.2c0-0.2-0.1-0.3-0.3-0.3h-17  c-0.2,0-0.3,0.1-0.3,0.3v8.2c0,0.3,0.3,0,0,0H636c-7.5,0-14.9,2-21.4,5.7s-11.9,9.2-15.7,15.7c-3.8,6.5-5.7,13.9-5.7,21.4v30.9  c0,0.3,0.3,0,0,0h-8.2c-0.2,0-0.3,0.1-0.3,0.3v17c0,0.2,0.1,0.3,0.3,0.3h8.2c0.3,0,0-0.3,0,0v16.4c0,0.3,0.3,0,0,0h-8.2  c-0.2,0-0.3,0.1-0.3,0.3v17c0,0.2,0.1,0.3,0.3,0.3h8.2c0.3,0,0-0.3,0,0v16.4c0,0.3,0.3,0,0,0h-8.2c-0.2,0-0.3,0.1-0.3,0.3v17  c0,0.2,0.1,0.3,0.3,0.3h8.2c0.3,0,0-0.3,0,0v16.4c0,0.3,0.3,0,0,0h-8.2c-0.2,0-0.3,0.1-0.3,0.3v17c0,0.2,0.1,0.3,0.3,0.3h8.2  c0.3,0,0-0.3,0,0v30.9c0,7.5,2,14.9,5.7,21.4c3.8,6.5,9.2,11.9,15.7,15.7C621.1,853.1,628.5,855.1,636,855.1" />
<g
   id="p-3">
	<path
   id="path25"
   class="st0"
   d="M1207.7,863.6h232.4h232.4c9,0,17.9-2.4,25.7-6.9c7.8-4.5,14.3-11,18.8-18.8   c4.5-7.8,6.9-16.6,6.9-25.7V630.8c0-9-2.4-17.9-6.9-25.7c-4.5-7.8-11-14.3-18.8-18.8c-7.8-4.5-16.6-6.9-25.7-6.9h-464.9   c-9,0-17.9,2.4-25.7,6.9c-7.8,4.5-14.3,11-18.8,18.8c-4.5,7.8-6.9,16.6-6.9,25.7v181.4c0,9,2.4,17.9,6.9,25.7   c4.5,7.8,11,14.3,18.8,18.8C1189.9,861.2,1198.7,863.6,1207.7,863.6" />
</g>
<g
   id="p-4">
	<path
   id="path30"
   class="st0"
   d="M13.2,575.3h22.7c0.2,0,0.3-0.1,0.3-0.3v-8.2c0-0.3-0.3,0,0,0h16.4c0.3,0,0-0.3,0,0v8.2   c0,0.2,0.1,0.3,0.3,0.3h17c0.2,0,0.3-0.1,0.3-0.3v-8.2c0-0.3-0.3,0,0,0h16.4c0.3,0,0-0.3,0,0v8.2c0,0.2,0.1,0.3,0.3,0.3h17   c0.2,0,0.3-0.1,0.3-0.3v-8.2c0-0.3-0.3,0,0,0h16.4c0.3,0,0-0.3,0,0v8.2c0,0.2,0.1,0.3,0.3,0.3h17c0.2,0,0.3-0.1,0.3-0.3v-8.2   c0-0.3-0.3,0,0,0h16.4c0.3,0,0-0.3,0,0v8.2c0,0.2,0.1,0.3,0.3,0.3h17c0.2,0,0.3-0.1,0.3-0.3v-8.2c0-0.3-0.3,0,0,0h16.4   c0.3,0,0-0.3,0,0v8.2c0,0.2,0.1,0.3,0.3,0.3h17c0.2,0,0.3-0.1,0.3-0.3v-8.2c0-0.3-0.3,0,0,0h16.4c0.3,0,0-0.3,0,0v8.2   c0,0.2,0.1,0.3,0.3,0.3h22.7h64h31.2c0.2,0,0.3-0.1,0.3-0.3v-8.2c0-0.3-0.3,0,0,0h16.4c0.3,0,0-0.3,0,0v8.2c0,0.2,0.1,0.3,0.3,0.3   h17c0.2,0,0.3-0.1,0.3-0.3v-8.2c0-0.3-0.3,0,0,0h16.4c0.3,0,0-0.3,0,0v8.2c0,0.2,0.1,0.3,0.3,0.3h17c0.2,0,0.3-0.1,0.3-0.3v-8.2   c0-0.3-0.3,0,0,0h16.4c0.3,0,0-0.3,0,0v8.2c0,0.2,0.1,0.3,0.3,0.3h17c0.2,0,0.3-0.1,0.3-0.3v-8.2c0-0.3-0.3,0,0,0h16.4   c0.3,0,0-0.3,0,0v8.2c0,0.2,0.1,0.3,0.3,0.3h31.2h64H575c0.2,0,0.3-0.1,0.3-0.3v-8.2c0-0.3-0.3,0,0,0h16.4c0.3,0,0-0.3,0,0v8.2   c0,0.2,0.1,0.3,0.3,0.3h17c0.2,0,0.3-0.1,0.3-0.3v-8.2c0-0.3-0.3,0,0,0h16.4c0.3,0,0-0.3,0,0v8.2c0,0.2,0.1,0.3,0.3,0.3h17   c0.2,0,0.3-0.1,0.3-0.3v-8.2c0-0.3-0.3,0,0,0h16.4c0.3,0,0-0.3,0,0v8.2c0,0.2,0.1,0.3,0.3,0.3h17c0.2,0,0.3-0.1,0.3-0.3v-8.2   c0-0.3-0.3,0,0,0h16.4c0.3,0,0-0.3,0,0v8.2c0,0.2,0.1,0.3,0.3,0.3h17c0.2,0,0.3-0.1,0.3-0.3v-8.2c0-0.3-0.3,0,0,0h16.4   c0.3,0,0-0.3,0,0v8.2c0,0.2,0.1,0.3,0.3,0.3h17c0.2,0,0.3-0.1,0.3-0.3v-8.2c0-0.3-0.3,0,0,0h16.4c0.3,0,0-0.3,0,0v8.2   c0,0.2,0.1,0.3,0.3,0.3h17c0.2,0,0.3-0.1,0.3-0.3v-8.2c0-0.3-0.3,0,0,0h16.4c0.3,0,0-0.3,0,0v8.2c0,0.2,0.1,0.3,0.3,0.3h17   c0.2,0,0.3-0.1,0.3-0.3v-8.2c0-0.3-0.3,0,0,0h16.4c0.3,0,0-0.3,0,0v8.2c0,0.2,0.1,0.3,0.3,0.3h17c0.2,0,0.3-0.1,0.3-0.3v-8.2   c0-0.3-0.3,0,0,0h16.4c0.3,0,0-0.3,0,0v8.2c0,0.2,0.1,0.3,0.3,0.3h17c0.2,0,0.3-0.1,0.3-0.3v-8.2c0-0.3-0.3,0,0,0h16.4   c0.3,0,0-0.3,0,0v8.2c0,0.2,0.1,0.3,0.3,0.3h17c0.2,0,0.3-0.1,0.3-0.3v-8.2c0-0.3-0.3,0,0,0h16.4c0.3,0,0-0.3,0,0v8.2   c0,0.2,0.1,0.3,0.3,0.3h17c0.2,0,0.3-0.1,0.3-0.3v-8.2c0-0.3-0.3,0,0,0h16.4c0.3,0,0-0.3,0,0v8.2c0,0.2,0.1,0.3,0.3,0.3h17   c0.2,0,0.3-0.1,0.3-0.3v-8.2c0-0.3-0.3,0,0,0h16.4c0.3,0,0-0.3,0,0v8.2c0,0.2,0.1,0.3,0.3,0.3h19.8h64h31.2c0.2,0,0.3-0.1,0.3-0.3   v-8.2c0-0.3-0.3,0,0,0h16.4c0.3,0,0-0.3,0,0v8.2c0,0.2,0.1,0.3,0.3,0.3h17c0.2,0,0.3-0.1,0.3-0.3v-8.2c0-0.3-0.3,0,0,0h16.4   c0.3,0,0-0.3,0,0v8.2c0,0.2,0.1,0.3,0.3,0.3h17c0.2,0,0.3-0.1,0.3-0.3v-8.2c0-0.3-0.3,0,0,0h16.4c0.3,0,0-0.3,0,0v8.2   c0,0.2,0.1,0.3,0.3,0.3h17c0.2,0,0.3-0.1,0.3-0.3v-8.2c0-0.3-0.3,0,0,0h16.4c0.3,0,0-0.3,0,0v8.2c0,0.2,0.1,0.3,0.3,0.3h31.2h64   h22.7c0.2,0,0.3-0.1,0.3-0.3v-8.2c0-0.3-0.3,0,0,0h16.4c0.3,0,0-0.3,0,0v8.2c0,0.2,0.1,0.3,0.3,0.3h17c0.2,0,0.3-0.1,0.3-0.3v-8.2   c0-0.3-0.3,0,0,0h16.4c0.3,0,0-0.3,0,0v8.2c0,0.2,0.1,0.3,0.3,0.3h17c0.2,0,0.3-0.1,0.3-0.3v-8.2c0-0.3-0.3,0,0,0h16.4   c0.3,0,0-0.3,0,0v8.2c0,0.2,0.1,0.3,0.3,0.3h17c0.2,0,0.3-0.1,0.3-0.3v-8.2c0-0.3-0.3,0,0,0h16.4c0.3,0,0-0.3,0,0v8.2   c0,0.2,0.1,0.3,0.3,0.3h17c0.2,0,0.3-0.1,0.3-0.3v-8.2c0-0.3-0.3,0,0,0h16.4c0.3,0,0-0.3,0,0v8.2c0,0.2,0.1,0.3,0.3,0.3h17   c0.2,0,0.3-0.1,0.3-0.3v-8.2c0-0.3-0.3,0,0,0h16.4c0.3,0,0-0.3,0,0v8.2c0,0.2,0.1,0.3,0.3,0.3h22.7c0.2,0,0.3-0.1,0.3-0.3v-8.5V531   c0-0.3,0.1-0.6,0.3-0.8c0.2-0.2,0.4-0.4,0.7-0.5c0.3-0.1,0.6-0.1,0.9,0c0.3,0.1,0.5,0.2,0.7,0.5l6.7,8c0.3,0.3,0.6,0.5,1,0.6   c0.4,0.1,0.8,0.1,1.2-0.1c0.4-0.1,0.7-0.4,0.9-0.7c0.2-0.3,0.4-0.7,0.4-1.1v-31.4c0-0.4-0.1-0.8-0.4-1.1c-0.2-0.3-0.6-0.6-0.9-0.7   c-0.4-0.1-0.8-0.2-1.2-0.1c-0.4,0.1-0.7,0.3-1,0.6l-6.7,8c-0.2,0.2-0.4,0.4-0.7,0.5c-0.3,0.1-0.6,0.1-0.9,0   c-0.3-0.1-0.5-0.3-0.7-0.5c-0.2-0.2-0.3-0.5-0.3-0.8v-31.4c0-0.3,0.1-0.6,0.3-0.8c0.2-0.2,0.4-0.4,0.7-0.5c0.3-0.1,0.6-0.1,0.9,0   c0.3,0.1,0.5,0.2,0.7,0.5l6.7,8c0.3,0.3,0.6,0.5,1,0.6c0.4,0.1,0.8,0.1,1.2-0.1c0.4-0.1,0.7-0.4,0.9-0.7c0.2-0.3,0.4-0.7,0.4-1.1   v-31.4c0-0.4-0.1-0.8-0.4-1.1c-0.2-0.3-0.6-0.6-0.9-0.7c-0.4-0.1-0.8-0.2-1.2-0.1c-0.4,0.1-0.7,0.3-1,0.6l-6.7,8   c-0.2,0.2-0.4,0.4-0.7,0.5c-0.3,0.1-0.6,0.1-0.9,0c-0.3-0.1-0.5-0.3-0.7-0.5c-0.2-0.2-0.3-0.5-0.3-0.8v-31.4c0-0.3,0.1-0.6,0.3-0.8   c0.2-0.2,0.4-0.4,0.7-0.5c0.3-0.1,0.6-0.1,0.9,0c0.3,0.1,0.5,0.2,0.7,0.5l6.7,8c0.3,0.3,0.6,0.5,1,0.6c0.4,0.1,0.8,0.1,1.2-0.1   c0.4-0.1,0.7-0.4,0.9-0.7c0.2-0.3,0.4-0.7,0.4-1.1v-31.4c0-0.4-0.1-0.8-0.4-1.1c-0.2-0.3-0.6-0.6-0.9-0.7c-0.4-0.1-0.8-0.2-1.2-0.1   c-0.4,0.1-0.7,0.3-1,0.6l-6.7,8c-0.2,0.2-0.4,0.4-0.7,0.5c-0.3,0.1-0.6,0.1-0.9,0c-0.3-0.1-0.5-0.3-0.7-0.5   c-0.2-0.2-0.3-0.5-0.3-0.8v-31.4c0-0.3,0.1-0.6,0.3-0.8c0.2-0.2,0.4-0.4,0.7-0.5c0.3-0.1,0.6-0.1,0.9,0c0.3,0.1,0.5,0.2,0.7,0.5   l6.7,8c0.3,0.3,0.6,0.5,1,0.6c0.4,0.1,0.8,0.1,1.2-0.1c0.4-0.1,0.7-0.4,0.9-0.7c0.2-0.3,0.4-0.7,0.4-1.1v-31.4   c0-0.4-0.1-0.8-0.4-1.1c-0.2-0.3-0.6-0.6-0.9-0.7c-0.4-0.1-0.8-0.2-1.2-0.1c-0.4,0.1-0.7,0.3-1,0.6l-6.7,8   c-0.2,0.2-0.4,0.4-0.7,0.5c-0.3,0.1-0.6,0.1-0.9,0c-0.3-0.1-0.5-0.3-0.7-0.5c-0.2-0.2-0.3-0.5-0.3-0.8v-31.4c0-0.3,0.1-0.6,0.3-0.8   c0.2-0.2,0.4-0.4,0.7-0.5c0.3-0.1,0.6-0.1,0.9,0c0.3,0.1,0.5,0.2,0.7,0.5l6.7,8c0.3,0.3,0.6,0.5,1,0.6c0.4,0.1,0.8,0.1,1.2-0.1   c0.4-0.1,0.7-0.4,0.9-0.7c0.2-0.3,0.4-0.7,0.4-1.1v-31.4c0-0.4-0.1-0.8-0.4-1.1c-0.2-0.3-0.6-0.6-0.9-0.7c-0.4-0.1-0.8-0.2-1.2-0.1   c-0.4,0.1-0.7,0.3-1,0.6l-6.7,8c-0.2,0.2-0.4,0.4-0.7,0.5c-0.3,0.1-0.6,0.1-0.9,0c-0.3-0.1-0.5-0.3-0.7-0.5   c-0.2-0.2-0.3-0.5-0.3-0.8v-31.4c0-0.3,0.1-0.6,0.3-0.8c0.2-0.2,0.4-0.4,0.7-0.5c0.3-0.1,0.6-0.1,0.9,0c0.3,0.1,0.5,0.2,0.7,0.5   l6.7,8c0.3,0.3,0.6,0.5,1,0.6c0.4,0.1,0.8,0.1,1.2-0.1c0.4-0.1,0.7-0.4,0.9-0.7c0.2-0.3,0.4-0.7,0.4-1.1v-31.4   c0-0.4-0.1-0.8-0.4-1.1c-0.2-0.3-0.6-0.6-0.9-0.7c-0.4-0.1-0.8-0.2-1.2-0.1c-0.4,0.1-0.7,0.3-1,0.6l-6.7,8   c-0.2,0.2-0.4,0.4-0.7,0.5c-0.3,0.1-0.6,0.1-0.9,0c-0.3-0.1-0.5-0.3-0.7-0.5c-0.2-0.2-0.3-0.5-0.3-0.8v-31.4c0-0.3,0.1-0.6,0.3-0.8   c0.2-0.2,0.4-0.4,0.7-0.5c0.3-0.1,0.6-0.1,0.9,0c0.3,0.1,0.5,0.2,0.7,0.5l6.7,8c0.3,0.3,0.6,0.5,1,0.6c0.4,0.1,0.8,0.1,1.2-0.1   c0.4-0.1,0.7-0.4,0.9-0.7c0.2-0.3,0.4-0.7,0.4-1.1v-31.4c0-0.4-0.1-0.8-0.4-1.1c-0.2-0.3-0.6-0.6-0.9-0.7c-0.4-0.1-0.8-0.2-1.2-0.1   c-0.4,0.1-0.7,0.3-1,0.6l-6.7,8c-0.2,0.2-0.4,0.4-0.7,0.5c-0.3,0.1-0.6,0.1-0.9,0c-0.3-0.1-0.5-0.3-0.7-0.5   c-0.2-0.2-0.3-0.5-0.3-0.8v-31.4c0-0.3,0.1-0.6,0.3-0.8c0.2-0.2,0.4-0.4,0.7-0.5c0.3-0.1,0.6-0.1,0.9,0c0.3,0.1,0.5,0.2,0.7,0.5   l6.7,8c0.3,0.3,0.6,0.5,1,0.6c0.4,0.1,0.8,0.1,1.2-0.1c0.4-0.1,0.7-0.4,0.9-0.7c0.2-0.3,0.4-0.7,0.4-1.1v-31.4   c0-0.4-0.1-0.8-0.4-1.1c-0.2-0.3-0.6-0.6-0.9-0.7c-0.4-0.1-0.8-0.2-1.2-0.1c-0.4,0.1-0.7,0.3-1,0.6l-6.7,8   c-0.2,0.2-0.4,0.4-0.7,0.5c-0.3,0.1-0.6,0.1-0.9,0c-0.3-0.1-0.5-0.3-0.7-0.5c-0.2-0.2-0.3-0.5-0.3-0.8v-31.4c0-0.3,0.1-0.6,0.3-0.8   c0.2-0.2,0.4-0.4,0.7-0.5c0.3-0.1,0.6-0.1,0.9,0c0.3,0.1,0.5,0.2,0.7,0.5l6.7,8c0.3,0.3,0.6,0.5,1,0.6c0.4,0.1,0.8,0.1,1.2-0.1   c0.4-0.1,0.7-0.4,0.9-0.7c0.2-0.3,0.4-0.7,0.4-1.1V97.3c0-0.4-0.1-0.8-0.4-1.1c-0.2-0.3-0.6-0.6-0.9-0.7c-0.4-0.1-0.8-0.2-1.2-0.1   c-0.4,0.1-0.7,0.3-1,0.6l-6.7,8c-0.2,0.2-0.4,0.4-0.7,0.5c-0.3,0.1-0.6,0.1-0.9,0c-0.3-0.1-0.5-0.3-0.7-0.5   c-0.2-0.2-0.3-0.5-0.3-0.8V71.7c0-0.3,0.1-0.6,0.3-0.8c0.2-0.2,0.4-0.4,0.7-0.5c0.3-0.1,0.6-0.1,0.9,0c0.3,0.1,0.5,0.2,0.7,0.5   l6.7,8c0.3,0.3,0.6,0.5,1,0.6c0.4,0.1,0.8,0.1,1.2-0.1c0.4-0.1,0.7-0.4,0.9-0.7c0.2-0.3,0.4-0.7,0.4-1.1V46.2   c0-0.4-0.1-0.8-0.4-1.1c-0.2-0.3-0.6-0.6-0.9-0.7c-0.4-0.1-0.8-0.2-1.2-0.1c-0.4,0.1-0.7,0.3-1,0.6l-6.7,8   c-0.2,0.2-0.4,0.4-0.7,0.5c-0.3,0.1-0.6,0.1-0.9,0c-0.3-0.1-0.5-0.3-0.7-0.5c-0.2-0.2-0.3-0.5-0.3-0.8V16.6V8.1   c0-0.2-0.1-0.3-0.3-0.3h-22.7c-0.2,0-0.3,0.1-0.3,0.3v8.2c0,0.3,0.3,0,0,0h-16.4c-0.3,0,0,0.3,0,0V8.1c0-0.2-0.1-0.3-0.3-0.3h-17   c-0.2,0-0.3,0.1-0.3,0.3v8.2c0,0.3,0.3,0,0,0h-16.4c-0.3,0,0,0.3,0,0V8.1c0-0.2-0.1-0.3-0.3-0.3h-17c-0.2,0-0.3,0.1-0.3,0.3v8.2   c0,0.3,0.3,0,0,0h-16.4c-0.3,0,0,0.3,0,0V8.1c0-0.2-0.1-0.3-0.3-0.3h-17c-0.2,0-0.3,0.1-0.3,0.3v8.2c0,0.3,0.3,0,0,0h-16.4   c-0.3,0,0,0.3,0,0V8.1c0-0.2-0.1-0.3-0.3-0.3h-17c-0.2,0-0.3,0.1-0.3,0.3v8.2c0,0.3,0.3,0,0,0h-16.4c-0.3,0,0,0.3,0,0V8.1   c0-0.2-0.1-0.3-0.3-0.3h-17c-0.2,0-0.3,0.1-0.3,0.3v8.2c0,0.3,0.3,0,0,0h-16.4c-0.3,0,0,0.3,0,0V8.1c0-0.2-0.1-0.3-0.3-0.3h-22.7   h-64h-31.2c-0.2,0-0.3,0.1-0.3,0.3v8.2c0,0.3,0.3,0,0,0h-16.4c-0.3,0,0,0.3,0,0V8.1c0-0.2-0.1-0.3-0.3-0.3h-17   c-0.2,0-0.3,0.1-0.3,0.3v8.2c0,0.3,0.3,0,0,0h-16.4c-0.3,0,0,0.3,0,0V8.1c0-0.2-0.1-0.3-0.3-0.3h-17c-0.2,0-0.3,0.1-0.3,0.3v8.2   c0,0.3,0.3,0,0,0h-16.4c-0.3,0,0,0.3,0,0V8.1c0-0.2-0.1-0.3-0.3-0.3h-17c-0.2,0-0.3,0.1-0.3,0.3v8.2c0,0.3,0.3,0,0,0h-16.4   c-0.3,0,0,0.3,0,0V8.1c0-0.2-0.1-0.3-0.3-0.3H1084h-64h-19.8c-0.2,0-0.3,0.1-0.3,0.3v8.2c0,0.3,0.3,0,0,0h-16.4c-0.3,0,0,0.3,0,0   V8.1c0-0.2-0.1-0.3-0.3-0.3h-17c-0.2,0-0.3,0.1-0.3,0.3v8.2c0,0.3,0.3,0,0,0h-16.4c-0.3,0,0,0.3,0,0V8.1c0-0.2-0.1-0.3-0.3-0.3h-17   c-0.2,0-0.3,0.1-0.3,0.3v8.2c0,0.3,0.3,0,0,0h-16.4c-0.3,0,0,0.3,0,0V8.1c0-0.2-0.1-0.3-0.3-0.3h-17c-0.2,0-0.3,0.1-0.3,0.3v8.2   c0,0.3,0.3,0,0,0h-16.4c-0.3,0,0,0.3,0,0V8.1c0-0.2-0.1-0.3-0.3-0.3h-17c-0.2,0-0.3,0.1-0.3,0.3v8.2c0,0.3,0.3,0,0,0h-16.4   c-0.3,0,0,0.3,0,0V8.1c0-0.2-0.1-0.3-0.3-0.3h-17c-0.2,0-0.3,0.1-0.3,0.3v8.2c0,0.3,0.3,0,0,0h-16.4c-0.3,0,0,0.3,0,0V8.1   c0-0.2-0.1-0.3-0.3-0.3h-17c-0.2,0-0.3,0.1-0.3,0.3v8.2c0,0.3,0.3,0,0,0h-16.4c-0.3,0,0,0.3,0,0V8.1c0-0.2-0.1-0.3-0.3-0.3h-17   c-0.2,0-0.3,0.1-0.3,0.3v8.2c0,0.3,0.3,0,0,0h-16.4c-0.3,0,0,0.3,0,0V8.1c0-0.2-0.1-0.3-0.3-0.3h-17c-0.2,0-0.3,0.1-0.3,0.3v8.2   c0,0.3,0.3,0,0,0h-16.4c-0.3,0,0,0.3,0,0V8.1c0-0.2-0.1-0.3-0.3-0.3h-17c-0.2,0-0.3,0.1-0.3,0.3v8.2c0,0.3,0.3,0,0,0h-16.4   c-0.3,0,0,0.3,0,0V8.1c0-0.2-0.1-0.3-0.3-0.3h-17c-0.2,0-0.3,0.1-0.3,0.3v8.2c0,0.3,0.3,0,0,0h-16.4c-0.3,0,0,0.3,0,0V8.1   c0-0.2-0.1-0.3-0.3-0.3h-17c-0.2,0-0.3,0.1-0.3,0.3v8.2c0,0.3,0.3,0,0,0h-16.4c-0.3,0,0,0.3,0,0V8.1c0-0.2-0.1-0.3-0.3-0.3h-17   c-0.2,0-0.3,0.1-0.3,0.3v8.2c0,0.3,0.3,0,0,0h-16.4c-0.3,0,0,0.3,0,0V8.1c0-0.2-0.1-0.3-0.3-0.3h-19.8h-64h-31.2   c-0.2,0-0.3,0.1-0.3,0.3v8.2c0,0.3,0.3,0,0,0h-16.4c-0.3,0,0,0.3,0,0V8.1c0-0.2-0.1-0.3-0.3-0.3h-17c-0.2,0-0.3,0.1-0.3,0.3v8.2   c0,0.3,0.3,0,0,0h-16.4c-0.3,0,0,0.3,0,0V8.1c0-0.2-0.1-0.3-0.3-0.3h-17c-0.2,0-0.3,0.1-0.3,0.3v8.2c0,0.3,0.3,0,0,0h-16.4   c-0.3,0,0,0.3,0,0V8.1c0-0.2-0.1-0.3-0.3-0.3h-17c-0.2,0-0.3,0.1-0.3,0.3v8.2c0,0.3,0.3,0,0,0h-16.4c-0.3,0,0,0.3,0,0V8.1   c0-0.2-0.1-0.3-0.3-0.3h-31.2h-64H223c-0.2,0-0.3,0.1-0.3,0.3v8.2c0,0.3,0.3,0,0,0h-16.4c-0.3,0,0,0.3,0,0V8.1   c0-0.2-0.1-0.3-0.3-0.3h-17c-0.2,0-0.3,0.1-0.3,0.3v8.2c0,0.3,0.3,0,0,0h-16.4c-0.3,0,0,0.3,0,0V8.1c0-0.2-0.1-0.3-0.3-0.3h-17   c-0.2,0-0.3,0.1-0.3,0.3v8.2c0,0.3,0.3,0,0,0h-16.4c-0.3,0,0,0.3,0,0V8.1c0-0.2-0.1-0.3-0.3-0.3h-17c-0.2,0-0.3,0.1-0.3,0.3v8.2   c0,0.3,0.3,0,0,0h-16.4c-0.3,0,0,0.3,0,0V8.1c0-0.2-0.1-0.3-0.3-0.3h-17c-0.2,0-0.3,0.1-0.3,0.3v8.2c0,0.3,0.3,0,0,0H70.2   c-0.3,0,0,0.3,0,0V8.1c0-0.2-0.1-0.3-0.3-0.3h-17c-0.2,0-0.3,0.1-0.3,0.3v8.2c0,0.3,0.3,0,0,0H36.2c-0.3,0,0,0.3,0,0V8.1   c0-0.2-0.1-0.3-0.3-0.3H13.2c-0.2,0-0.3,0.1-0.3,0.3v8.5v35.5c0,0.4,0.1,0.8,0.4,1.1c0.2,0.3,0.6,0.6,0.9,0.7   c0.4,0.1,0.8,0.2,1.2,0.1c0.4-0.1,0.7-0.3,1-0.6l6.7-8c0.2-0.2,0.4-0.4,0.7-0.5c0.3-0.1,0.6-0.1,0.9,0c0.3,0.1,0.5,0.3,0.7,0.5   c0.2,0.2,0.3,0.5,0.3,0.8v31.4c0,0.3-0.1,0.6-0.3,0.8c-0.2,0.2-0.4,0.4-0.7,0.5c-0.3,0.1-0.6,0.1-0.9,0c-0.3-0.1-0.5-0.2-0.7-0.5   l-6.7-8c-0.3-0.3-0.6-0.5-1-0.6c-0.4-0.1-0.8-0.1-1.2,0.1c-0.4,0.1-0.7,0.4-0.9,0.7c-0.2,0.3-0.4,0.7-0.4,1.1v31.4   c0,0.4,0.1,0.8,0.4,1.1c0.2,0.3,0.6,0.6,0.9,0.7c0.4,0.1,0.8,0.2,1.2,0.1c0.4-0.1,0.7-0.3,1-0.6l6.7-8c0.2-0.2,0.4-0.4,0.7-0.5   c0.3-0.1,0.6-0.1,0.9,0c0.3,0.1,0.5,0.3,0.7,0.5c0.2,0.2,0.3,0.5,0.3,0.8v31.4c0,0.3-0.1,0.6-0.3,0.8c-0.2,0.2-0.4,0.4-0.7,0.5   c-0.3,0.1-0.6,0.1-0.9,0c-0.3-0.1-0.5-0.2-0.7-0.5l-6.7-8c-0.3-0.3-0.6-0.5-1-0.6c-0.4-0.1-0.8-0.1-1.2,0.1   c-0.4,0.1-0.7,0.4-0.9,0.7c-0.2,0.3-0.4,0.7-0.4,1.1v31.4c0,0.4,0.1,0.8,0.4,1.1c0.2,0.3,0.6,0.6,0.9,0.7c0.4,0.1,0.8,0.2,1.2,0.1   c0.4-0.1,0.7-0.3,1-0.6l6.7-8c0.2-0.2,0.4-0.4,0.7-0.5c0.3-0.1,0.6-0.1,0.9,0c0.3,0.1,0.5,0.3,0.7,0.5c0.2,0.2,0.3,0.5,0.3,0.8   v31.4c0,0.3-0.1,0.6-0.3,0.8c-0.2,0.2-0.4,0.4-0.7,0.5c-0.3,0.1-0.6,0.1-0.9,0c-0.3-0.1-0.5-0.2-0.7-0.5l-6.7-8   c-0.3-0.3-0.6-0.5-1-0.6c-0.4-0.1-0.8-0.1-1.2,0.1c-0.4,0.1-0.7,0.4-0.9,0.7c-0.2,0.3-0.4,0.7-0.4,1.1v31.4c0,0.4,0.1,0.8,0.4,1.1   c0.2,0.3,0.6,0.6,0.9,0.7c0.4,0.1,0.8,0.2,1.2,0.1c0.4-0.1,0.7-0.3,1-0.6l6.7-8c0.2-0.2,0.4-0.4,0.7-0.5c0.3-0.1,0.6-0.1,0.9,0   c0.3,0.1,0.5,0.3,0.7,0.5c0.2,0.2,0.3,0.5,0.3,0.8v31.4c0,0.3-0.1,0.6-0.3,0.8c-0.2,0.2-0.4,0.4-0.7,0.5c-0.3,0.1-0.6,0.1-0.9,0   c-0.3-0.1-0.5-0.2-0.7-0.5l-6.7-8c-0.3-0.3-0.6-0.5-1-0.6c-0.4-0.1-0.8-0.1-1.2,0.1c-0.4,0.1-0.7,0.4-0.9,0.7   c-0.2,0.3-0.4,0.7-0.4,1.1v31.4c0,0.4,0.1,0.8,0.4,1.1c0.2,0.3,0.6,0.6,0.9,0.7c0.4,0.1,0.8,0.2,1.2,0.1c0.4-0.1,0.7-0.3,1-0.6   l6.7-8c0.2-0.2,0.4-0.4,0.7-0.5c0.3-0.1,0.6-0.1,0.9,0c0.3,0.1,0.5,0.3,0.7,0.5c0.2,0.2,0.3,0.5,0.3,0.8v31.4   c0,0.3-0.1,0.6-0.3,0.8c-0.2,0.2-0.4,0.4-0.7,0.5c-0.3,0.1-0.6,0.1-0.9,0c-0.3-0.1-0.5-0.2-0.7-0.5l-6.7-8c-0.3-0.3-0.6-0.5-1-0.6   c-0.4-0.1-0.8-0.1-1.2,0.1c-0.4,0.1-0.7,0.4-0.9,0.7c-0.2,0.3-0.4,0.7-0.4,1.1v31.4c0,0.4,0.1,0.8,0.4,1.1c0.2,0.3,0.6,0.6,0.9,0.7   c0.4,0.1,0.8,0.2,1.2,0.1c0.4-0.1,0.7-0.3,1-0.6l6.7-8c0.2-0.2,0.4-0.4,0.7-0.5c0.3-0.1,0.6-0.1,0.9,0c0.3,0.1,0.5,0.3,0.7,0.5   c0.2,0.2,0.3,0.5,0.3,0.8v31.4c0,0.3-0.1,0.6-0.3,0.8c-0.2,0.2-0.4,0.4-0.7,0.5c-0.3,0.1-0.6,0.1-0.9,0c-0.3-0.1-0.5-0.2-0.7-0.5   l-6.7-8c-0.3-0.3-0.6-0.5-1-0.6c-0.4-0.1-0.8-0.1-1.2,0.1c-0.4,0.1-0.7,0.4-0.9,0.7c-0.2,0.3-0.4,0.7-0.4,1.1v31.4   c0,0.4,0.1,0.8,0.4,1.1c0.2,0.3,0.6,0.6,0.9,0.7c0.4,0.1,0.8,0.2,1.2,0.1c0.4-0.1,0.7-0.3,1-0.6l6.7-8c0.2-0.2,0.4-0.4,0.7-0.5   c0.3-0.1,0.6-0.1,0.9,0c0.3,0.1,0.5,0.3,0.7,0.5c0.2,0.2,0.3,0.5,0.3,0.8v31.4c0,0.3-0.1,0.6-0.3,0.8c-0.2,0.2-0.4,0.4-0.7,0.5   c-0.3,0.1-0.6,0.1-0.9,0c-0.3-0.1-0.5-0.2-0.7-0.5l-6.7-8c-0.3-0.3-0.6-0.5-1-0.6c-0.4-0.1-0.8-0.1-1.2,0.1   c-0.4,0.1-0.7,0.4-0.9,0.7c-0.2,0.3-0.4,0.7-0.4,1.1v31.4c0,0.4,0.1,0.8,0.4,1.1c0.2,0.3,0.6,0.6,0.9,0.7c0.4,0.1,0.8,0.2,1.2,0.1   c0.4-0.1,0.7-0.3,1-0.6l6.7-8c0.2-0.2,0.4-0.4,0.7-0.5c0.3-0.1,0.6-0.1,0.9,0c0.3,0.1,0.5,0.3,0.7,0.5c0.2,0.2,0.3,0.5,0.3,0.8   v31.4c0,0.3-0.1,0.6-0.3,0.8c-0.2,0.2-0.4,0.4-0.7,0.5c-0.3,0.1-0.6,0.1-0.9,0c-0.3-0.1-0.5-0.2-0.7-0.5l-6.7-8   c-0.3-0.3-0.6-0.5-1-0.6c-0.4-0.1-0.8-0.1-1.2,0.1c-0.4,0.1-0.7,0.4-0.9,0.7c-0.2,0.3-0.4,0.7-0.4,1.1v31.4c0,0.4,0.1,0.8,0.4,1.1   c0.2,0.3,0.6,0.6,0.9,0.7c0.4,0.1,0.8,0.2,1.2,0.1c0.4-0.1,0.7-0.3,1-0.6l6.7-8c0.2-0.2,0.4-0.4,0.7-0.5c0.3-0.1,0.6-0.1,0.9,0   c0.3,0.1,0.5,0.3,0.7,0.5c0.2,0.2,0.3,0.5,0.3,0.8v31.4c0,0.3-0.1,0.6-0.3,0.8c-0.2,0.2-0.4,0.4-0.7,0.5c-0.3,0.1-0.6,0.1-0.9,0   c-0.3-0.1-0.5-0.2-0.7-0.5l-6.7-8c-0.3-0.3-0.6-0.5-1-0.6c-0.4-0.1-0.8-0.1-1.2,0.1c-0.4,0.1-0.7,0.4-0.9,0.7   c-0.2,0.3-0.4,0.7-0.4,1.1v31.4c0,0.4,0.1,0.8,0.4,1.1c0.2,0.3,0.6,0.6,0.9,0.7c0.4,0.1,0.8,0.2,1.2,0.1c0.4-0.1,0.7-0.3,1-0.6   l6.7-8c0.2-0.2,0.4-0.4,0.7-0.5c0.3-0.1,0.6-0.1,0.9,0c0.3,0.1,0.5,0.3,0.7,0.5c0.2,0.2,0.3,0.5,0.3,0.8v31.4   c0,0.3-0.1,0.6-0.3,0.8c-0.2,0.2-0.4,0.4-0.7,0.5c-0.3,0.1-0.6,0.1-0.9,0c-0.3-0.1-0.5-0.2-0.7-0.5l-6.7-8c-0.3-0.3-0.6-0.5-1-0.6   c-0.4-0.1-0.8-0.1-1.2,0.1c-0.4,0.1-0.7,0.4-0.9,0.7c-0.2,0.3-0.4,0.7-0.4,1.1v35.5v8.5C12.9,575.1,13,575.3,13.2,575.3" />
	<path
   id="path32"
   class="st0"
   d="M250,575.3v-43 M250,523.8v-77.5 M250,437.8v-77.5 M250,351.8v-77.5 M250,265.8v-77.5 M250,179.8   v-77.5 M250,93.8V16.3 M254.3,7.8v43 M254.3,59.3v77.5 M254.3,145.3v77.5 M254.3,231.3v77.5 M254.3,317.3v77.5 M254.3,403.3v77.5    M254.3,489.3v77.5 M258.5,575.3v-43 M258.5,523.8v-77.5 M258.5,437.8v-77.5 M258.5,351.8v-77.5 M258.5,265.8v-77.5 M258.5,179.8   v-77.5 M258.5,93.8V16.3 M262.8,7.8v43 M262.8,59.3v77.5 M262.8,145.3v77.5 M262.8,231.3v77.5 M262.8,317.3v77.5 M262.8,403.3v77.5    M262.8,489.3v77.5 M267,575.3v-43 M267,523.8v-77.5 M267,437.8v-77.5 M267,351.8v-77.5 M267,265.8v-77.5 M267,179.8v-77.5    M267,93.8V16.3 M271.3,7.8v43 M271.3,59.3v77.5 M271.3,145.3v77.5 M271.3,231.3v77.5 M271.3,317.3v77.5 M271.3,403.3v77.5    M271.3,489.3v77.5 M275.5,575.3v-43 M275.5,523.8v-77.5 M275.5,437.8v-77.5 M275.5,351.8v-77.5 M275.5,265.8v-77.5 M275.5,179.8   v-77.5 M275.5,93.8V16.3 M279.8,7.8v43 M279.8,59.3v77.5 M279.8,145.3v77.5 M279.8,231.3v77.5 M279.8,317.3v77.5 M279.8,403.3v77.5    M279.8,489.3v77.5 M284,575.3v-43 M284,523.8v-77.5 M284,437.8v-77.5 M284,351.8v-77.5 M284,265.8v-77.5 M284,179.8v-77.5    M284,93.8V16.3 M288.3,7.8v43 M288.3,59.3v77.5 M288.3,145.3v77.5 M288.3,231.3v77.5 M288.3,317.3v77.5 M288.3,403.3v77.5    M288.3,489.3v77.5 M292.5,575.3v-43 M292.5,523.8v-77.5 M292.5,437.8v-77.5 M292.5,351.8v-77.5 M292.5,265.8v-77.5 M292.5,179.8   v-77.5 M292.5,93.8V16.3 M296.8,7.8v43 M296.8,59.3v77.5 M296.8,145.3v77.5 M296.8,231.3v77.5 M296.8,317.3v77.5 M296.8,403.3v77.5    M296.8,489.3v77.5 M301,575.3v-43 M301,523.8v-77.5 M301,437.8v-77.5 M301,351.8v-77.5 M301,265.8v-77.5 M301,179.8v-77.5    M301,93.8V16.3 M305.3,7.8v43 M305.3,59.3v77.5 M305.3,145.3v77.5 M305.3,231.3v77.5 M305.3,317.3v77.5 M305.3,403.3v77.5    M305.3,489.3v77.5" />
	<path
   id="path34"
   class="st0"
   d="M495.5,575.3v-43 M495.5,523.8v-77.5 M495.5,437.8v-77.5 M495.5,351.8v-77.5 M495.5,265.8v-77.5    M495.5,179.8v-77.5 M495.5,93.8V16.3 M499.7,7.8v43 M499.7,59.3v77.5 M499.7,145.3v77.5 M499.7,231.3v77.5 M499.7,317.3v77.5    M499.7,403.3v77.5 M499.7,489.3v77.5 M504,575.3v-43 M504,523.8v-77.5 M504,437.8v-77.5 M504,351.8v-77.5 M504,265.8v-77.5    M504,179.8v-77.5 M504,93.8V16.3 M508.2,7.8v43 M508.2,59.3v77.5 M508.2,145.3v77.5 M508.2,231.3v77.5 M508.2,317.3v77.5    M508.2,403.3v77.5 M508.2,489.3v77.5 M512.5,575.3v-43 M512.5,523.8v-77.5 M512.5,437.8v-77.5 M512.5,351.8v-77.5 M512.5,265.8   v-77.5 M512.5,179.8v-77.5 M512.5,93.8V16.3 M516.7,7.8v43 M516.7,59.3v77.5 M516.7,145.3v77.5 M516.7,231.3v77.5 M516.7,317.3   v77.5 M516.7,403.3v77.5 M516.7,489.3v77.5 M521,575.3v-43 M521,523.8v-77.5 M521,437.8v-77.5 M521,351.8v-77.5 M521,265.8v-77.5    M521,179.8v-77.5 M521,93.8V16.3 M525.2,7.8v43 M525.2,59.3v77.5 M525.2,145.3v77.5 M525.2,231.3v77.5 M525.2,317.3v77.5    M525.2,403.3v77.5 M525.2,489.3v77.5 M529.5,575.3v-43 M529.5,523.8v-77.5 M529.5,437.8v-77.5 M529.5,351.8v-77.5 M529.5,265.8   v-77.5 M529.5,179.8v-77.5 M529.5,93.8V16.3 M533.7,7.8v43 M533.7,59.3v77.5 M533.7,145.3v77.5 M533.7,231.3v77.5 M533.7,317.3   v77.5 M533.7,403.3v77.5 M533.7,489.3v77.5 M538,575.3v-43 M538,523.8v-77.5 M538,437.8v-77.5 M538,351.8v-77.5 M538,265.8v-77.5    M538,179.8v-77.5 M538,93.8V16.3 M542.2,7.8v43 M542.2,59.3v77.5 M542.2,145.3v77.5 M542.2,231.3v77.5 M542.2,317.3v77.5    M542.2,403.3v77.5 M542.2,489.3v77.5 M546.5,575.3v-43 M546.5,523.8v-77.5 M546.5,437.8v-77.5 M546.5,351.8v-77.5 M546.5,265.8   v-77.5 M546.5,179.8v-77.5 M546.5,93.8V16.3 M550.7,7.8v43 M550.7,59.3v77.5 M550.7,145.3v77.5 M550.7,231.3v77.5 M550.7,317.3   v77.5 M550.7,403.3v77.5 M550.7,489.3v77.5" />
	<path
   id="path36"
   class="st0"
   d="M1024.4,575.3v-43 M1024.4,523.8v-77.5 M1024.4,437.8v-77.5 M1024.4,351.8v-77.5 M1024.4,265.8   v-77.5 M1024.4,179.8v-77.5 M1024.4,93.8V16.3 M1028.6,7.8v43 M1028.6,59.3v77.5 M1028.6,145.3v77.5 M1028.6,231.3v77.5    M1028.6,317.3v77.5 M1028.6,403.3v77.5 M1028.6,489.3v77.5 M1032.9,575.3v-43 M1032.9,523.8v-77.5 M1032.9,437.8v-77.5    M1032.9,351.8v-77.5 M1032.9,265.8v-77.5 M1032.9,179.8v-77.5 M1032.9,93.8V16.3 M1037.1,7.8v43 M1037.1,59.3v77.5 M1037.1,145.3   v77.5 M1037.1,231.3v77.5 M1037.1,317.3v77.5 M1037.1,403.3v77.5 M1037.1,489.3v77.5 M1041.4,575.3v-43 M1041.4,523.8v-77.5    M1041.4,437.8v-77.5 M1041.4,351.8v-77.5 M1041.4,265.8v-77.5 M1041.4,179.8v-77.5 M1041.4,93.8V16.3 M1045.6,7.8v43 M1045.6,59.3   v77.5 M1045.6,145.3v77.5 M1045.6,231.3v77.5 M1045.6,317.3v77.5 M1045.6,403.3v77.5 M1045.6,489.3v77.5 M1049.9,575.3v-43    M1049.9,523.8v-77.5 M1049.9,437.8v-77.5 M1049.9,351.8v-77.5 M1049.9,265.8v-77.5 M1049.9,179.8v-77.5 M1049.9,93.8V16.3    M1054.1,7.8v43 M1054.1,59.3v77.5 M1054.1,145.3v77.5 M1054.1,231.3v77.5 M1054.1,317.3v77.5 M1054.1,403.3v77.5 M1054.1,489.3   v77.5 M1058.4,575.3v-43 M1058.4,523.8v-77.5 M1058.4,437.8v-77.5 M1058.4,351.8v-77.5 M1058.4,265.8v-77.5 M1058.4,179.8v-77.5    M1058.4,93.8V16.3 M1062.6,7.8v43 M1062.6,59.3v77.5 M1062.6,145.3v77.5 M1062.6,231.3v77.5 M1062.6,317.3v77.5 M1062.6,403.3   v77.5 M1062.6,489.3v77.5 M1066.9,575.3v-43 M1066.9,523.8v-77.5 M1066.9,437.8v-77.5 M1066.9,351.8v-77.5 M1066.9,265.8v-77.5    M1066.9,179.8v-77.5 M1066.9,93.8V16.3 M1071.2,7.8v43 M1071.2,59.3v77.5 M1071.2,145.3v77.5 M1071.2,231.3v77.5 M1071.2,317.3   v77.5 M1071.2,403.3v77.5 M1071.2,489.3v77.5 M1075.4,575.3v-43 M1075.4,523.8v-77.5 M1075.4,437.8v-77.5 M1075.4,351.8v-77.5    M1075.4,265.8v-77.5 M1075.4,179.8v-77.5 M1075.4,93.8V16.3 M1079.7,7.8v43 M1079.7,59.3v77.5 M1079.7,145.3v77.5 M1079.7,231.3   v77.5 M1079.7,317.3v77.5 M1079.7,403.3v77.5 M1079.7,489.3v77.5" />
	<path
   id="path38"
   class="st0"
   d="M1269.8,575.3v-43 M1269.8,523.8v-77.5 M1269.8,437.8v-77.5 M1269.8,351.8v-77.5 M1269.8,265.8   v-77.5 M1269.8,179.8v-77.5 M1269.8,93.8V16.3 M1274.1,7.8v43 M1274.1,59.3v77.5 M1274.1,145.3v77.5 M1274.1,231.3v77.5    M1274.1,317.3v77.5 M1274.1,403.3v77.5 M1274.1,489.3v77.5 M1278.3,575.3v-43 M1278.3,523.8v-77.5 M1278.3,437.8v-77.5    M1278.3,351.8v-77.5 M1278.3,265.8v-77.5 M1278.3,179.8v-77.5 M1278.3,93.8V16.3 M1282.6,7.8v43 M1282.6,59.3v77.5 M1282.6,145.3   v77.5 M1282.6,231.3v77.5 M1282.6,317.3v77.5 M1282.6,403.3v77.5 M1282.6,489.3v77.5 M1286.8,575.3v-43 M1286.8,523.8v-77.5    M1286.8,437.8v-77.5 M1286.8,351.8v-77.5 M1286.8,265.8v-77.5 M1286.8,179.8v-77.5 M1286.8,93.8V16.3 M1291.1,7.8v43 M1291.1,59.3   v77.5 M1291.1,145.3v77.5 M1291.1,231.3v77.5 M1291.1,317.3v77.5 M1291.1,403.3v77.5 M1291.1,489.3v77.5 M1295.3,575.3v-43    M1295.3,523.8v-77.5 M1295.3,437.8v-77.5 M1295.3,351.8v-77.5 M1295.3,265.8v-77.5 M1295.3,179.8v-77.5 M1295.3,93.8V16.3    M1299.6,7.8v43 M1299.6,59.3v77.5 M1299.6,145.3v77.5 M1299.6,231.3v77.5 M1299.6,317.3v77.5 M1299.6,403.3v77.5 M1299.6,489.3   v77.5 M1303.8,575.3v-43 M1303.8,523.8v-77.5 M1303.8,437.8v-77.5 M1303.8,351.8v-77.5 M1303.8,265.8v-77.5 M1303.8,179.8v-77.5    M1303.8,93.8V16.3 M1308.1,7.8v43 M1308.1,59.3v77.5 M1308.1,145.3v77.5 M1308.1,231.3v77.5 M1308.1,317.3v77.5 M1308.1,403.3   v77.5 M1308.1,489.3v77.5 M1312.3,575.3v-43 M1312.3,523.8v-77.5 M1312.3,437.8v-77.5 M1312.3,351.8v-77.5 M1312.3,265.8v-77.5    M1312.3,179.8v-77.5 M1312.3,93.8V16.3 M1316.6,7.8v43 M1316.6,59.3v77.5 M1316.6,145.3v77.5 M1316.6,231.3v77.5 M1316.6,317.3   v77.5 M1316.6,403.3v77.5 M1316.6,489.3v77.5 M1320.9,575.3v-43 M1320.9,523.8v-77.5 M1320.9,437.8v-77.5 M1320.9,351.8v-77.5    M1320.9,265.8v-77.5 M1320.9,179.8v-77.5 M1320.9,93.8V16.3 M1325.1,7.8v43 M1325.1,59.3v77.5 M1325.1,145.3v77.5 M1325.1,231.3   v77.5 M1325.1,317.3v77.5 M1325.1,403.3v77.5 M1325.1,489.3v77.5" />
</g>
<rect
   id="rect884"
   x="568.7"
   y="51.3"
   class="st1"
   width="442.3"
   height="442.2" />
<ellipse
   id="path1062"
   class="st2"
   cx="1351.5"
   cy="692.2"
   rx="13.4"
   ry="13.4" />
<ellipse
   id="path1062-7"
   class="st2"
   cx="1371.5"
   cy="777.5"
   rx="17.6"
   ry="17.6" />
<ellipse
   id="path1062-7_00000152984623253876444460000000401514701702378940_"
   class="st2"
   cx="799.8"
   cy="777.5"
   rx="17.6"
   ry="17.6" />
<ellipse
   id="path1062_00000083777763212640390960000009501440441098582948_"
   class="st2"
   cx="779.8"
   cy="691.8"
   rx="25.5"
   ry="25.5" />
<rect
   x="881.2"
   y="656.4"
   class="st2"
   width="99.2"
   height="70.9"
   id="rect20" />
<rect
   id="rect914-3-4"
   x="1282.6"
   y="748.4"
   class="st3"
   width="285.7"
   height="58.6" />
<rect
   id="rect914-3"
   x="1438.6"
   y="627.1"
   class="st4"
   width="129.8"
   height="117.1" />
<circle
   id="path1200_00000021104950032050235210000001590228241244151487_"
   class="st5"
   cx="1502.3"
   cy="693.4"
   r="10.6" />
<rect
   id="rect914"
   x="1282.6"
   y="627.1"
   class="st6"
   width="140.7"
   height="117.1" />
<path
   id="path1189"
   class="st7"
   d="M1316.7,732.9c-0.2,0-0.7-0.1-1-0.2c-1.7-0.3-3.1-1-4.4-2.2c-2.1-1.9-3.2-4.2-3.2-6.9  c0-2.6,0.9-4.7,2.8-6.5c1.5-1.5,3.1-2.3,5.2-2.7c0.6-0.1,2.2-0.1,2.9,0c2.1,0.3,3.9,1.1,5.5,2.7c1.9,1.8,2.8,4,2.8,6.6  c0,1.6-0.3,3-1.1,4.4c-1,1.7-2.6,3.2-4.3,4.1c-0.8,0.4-1.4,0.6-2.3,0.7c-0.6,0.1-0.9,0.1-1.6,0.2  C1317.4,733,1316.9,733,1316.7,732.9L1316.7,732.9z M1319.4,731.7c1-0.2,1.9-0.6,2.6-1c2.1-1.3,3.5-3.3,3.9-5.4c0.2-1,0.2-2.2,0-3.2  c-0.4-2.4-2.4-4.9-4.9-5.9c-1.1-0.5-2.1-0.7-3.4-0.7c-1.5,0-2.8,0.3-4,0.9c-1.2,0.6-2.4,1.7-3.1,2.9c-1.3,1.9-1.6,4.5-0.9,6.8  c0.5,1.5,1.6,3.1,3.1,4.1c1,0.8,2,1.2,3.3,1.4c0.8,0.2,0.8,0.2,1.9,0.1C1318.7,731.8,1318.9,731.8,1319.4,731.7L1319.4,731.7z   M1316.9,729.6c-1.3-0.3-2.6-1.1-4.1-2.5l-0.6-0.5l-0.2,0.2c-0.2,0.2-0.4,0.3-0.7,0.3c-0.2,0-0.5-0.2-0.5-0.3  c-0.1-0.2-0.1-0.4,0.1-0.6c0.1-0.1,0.3-0.3,0.4-0.6c0.2-0.2,0.4-0.6,0.6-0.8c0.1-0.3,0.3-0.5,0.4-0.6c0.2-0.1,0.4-0.1,0.6,0  c0.2,0.1,0.3,0.4,0.3,0.6c0,0.2,0,0.3-0.4,0.8l-0.1,0.2l0.2,0.2c0.4,0.3,1.2,0.9,1.8,1.3c0.5,0.3,0.9,0.5,1.3,0.6  c1.3,0.4,2.7,0.4,4-0.3c0.8-0.4,2.3-1.4,2.6-1.8c0.1-0.1,0.1-0.1,0-0.2c0-0.1-0.2-0.3-0.3-0.4c-0.2-0.3-0.2-0.4-0.2-0.6  c0-0.4,0.4-0.7,0.7-0.7c0.2,0.1,0.3,0.2,0.6,0.6c0.1,0.3,0.4,0.6,0.6,0.8c0.2,0.2,0.4,0.5,0.4,0.6c0.2,0.2,0.2,0.5,0.1,0.7  c-0.1,0.1-0.4,0.3-0.5,0.3c-0.2,0-0.5-0.1-0.6-0.3l-0.2-0.2l-0.6,0.5c-1.5,1.4-2.5,2-3.6,2.4c-0.4,0.1-0.5,0.2-1.2,0.2  C1317.4,729.6,1317,729.6,1316.9,729.6L1316.9,729.6z M1314.6,722.9c-0.5-0.3-0.9-1.3-0.9-2.5c0-1.5,0.5-2.6,1.2-2.6  c0.5,0,0.8,0.4,1.1,1.3c0.1,0.4,0.2,1.6,0.1,2.1c-0.1,0.5-0.3,1-0.5,1.3c-0.2,0.2-0.5,0.4-0.7,0.4  C1314.8,723,1314.7,722.9,1314.6,722.9L1314.6,722.9z M1320.2,722.9c-0.3-0.1-0.5-0.4-0.6-0.8c-0.2-0.5-0.3-1-0.3-1.9  c0-0.7,0.1-1,0.3-1.4c0.3-0.6,0.6-0.9,1-0.9c1.2,0,1.7,3.1,0.7,4.6C1321,722.9,1320.6,723.1,1320.2,722.9L1320.2,722.9z" />
<path
   id="path1846"
   class="st7"
   d="M1384,732.5c-0.4,0-1.4-0.2-1.9-0.4c-1-0.3-1.5-0.7-1.9-1.4c-0.2-0.4-0.2-0.4-0.2-0.9  c0-0.5,0-0.6,0.2-1c0.3-0.6,0.7-1.1,1.3-1.4c0.4-0.2,0.4-0.3,0.4-0.4c-0.2-0.6-0.2-0.8-0.2-1.2c0-0.3,0-0.6,0.1-0.8  c0.2-0.7,0.8-1.3,1.5-1.7l0.3-0.2v-0.6c0-0.7,0.1-0.9,0.5-1.4c0.3-0.3,0.9-0.7,1.3-0.8c0.2,0,0.2,0,0.2-0.3c0-0.1,0-0.4,0.1-0.5  c0.1-0.4,0.5-1.2,0.8-1.6c0.4-0.5,1-1.2,1.5-1.6c0.4-0.4,1.2-0.8,1.3-0.8c0,0,0.2,0,0.3-0.1c0.2-0.1,0.9-0.2,1.2-0.1  c0.3,0.1,0.3,0.2,0.1,0.6c-0.2,0.6-0.2,0.7,0.2,1.4c0.4,0.7,0.5,1,0.5,1.5l0,0.4l0.5,0.3c0.7,0.4,1.2,0.9,1.4,1.5  c0.2,0.4,0.2,0.5,0.2,1c0,0.3,0,0.6-0.1,0.8l-0.1,0.3l0.4,0.2c0.5,0.2,1,0.7,1.2,1.1c0.3,0.5,0.3,0.9,0.3,1.6c0,0.3,0,0.7-0.1,0.8  c0,0.1,0,0.2,0.3,0.3c1.2,0.7,1.8,1.8,1.7,3.1c-0.1,0.6-0.2,0.9-0.4,1.2c-0.5,0.6-1,0.9-2,0.9c-0.7,0-0.9,0-2.7-0.4l-0.7-0.1  l-1.7,0.2c-0.9,0.1-2,0.2-2.4,0.3C1386.7,732.5,1384.6,732.5,1384,732.5L1384,732.5z M1387.6,732c1-0.1,2.9-0.3,2.9-0.4  c0,0-0.2-0.1-0.4-0.1c-2.5-0.6-4.9-1.6-6.2-2.5c-0.4-0.3-1-0.9-1.3-1.3c-0.1-0.1-0.2-0.2-0.3-0.1c-0.5,0.1-1.3,0.8-1.6,1.4  c-0.2,0.4-0.2,1.1-0.1,1.5c0.2,0.4,0.7,0.9,1.1,1.1C1383.1,732,1384.9,732.2,1387.6,732L1387.6,732z M1395.8,731.8  c0.4-0.2,0.8-0.7,0.9-1c0.3-1.3,0.1-2.3-0.9-3c-0.6-0.4-0.7-0.5-1.8-0.5c-0.5,0-1.2-0.1-1.4-0.1c-0.3,0-0.4,0-0.6,0.1  c-0.2,0.1-0.4,0.1-0.6,0.1c-0.4,0-0.8-0.1-1.1-0.5c-0.2-0.2-0.4-0.3-0.9-0.5c-0.4-0.1-0.9-0.4-1.2-0.5l-0.5-0.2l-0.2,0.4  c-0.2,0.5-0.6,1-1,1.2c-0.4,0.2-0.9,0.2-1.3,0c-1-0.5-1.5-2-1.1-3.4c0.2-0.5,0.1-0.6-0.3-0.4c-0.4,0.2-0.9,0.6-1.1,0.8  c-0.3,0.4-0.4,0.7-0.4,1.2c0,0.8,0.2,1.6,0.8,2.2c1.2,1.4,3.3,2.4,6.7,3.3c0.9,0.2,1,0.3,2.8,0.6c1.4,0.3,1.3,0.2,2.1,0.2  C1395.4,732,1395.5,731.9,1395.8,731.8L1395.8,731.8z M1387.7,730.1c-0.7-0.2-1.2-0.5-1.8-1.1c-0.5-0.5-0.5-0.5-0.5-0.7  c0-0.1,0.1-0.2,0.2-0.3c0.1-0.1,0.2-0.1,0.8,0c1,0.1,3.2,0.2,4.2,0c0.6-0.1,0.7-0.1,0.9,0c0.3,0.2,0.3,0.4,0,0.8  c-0.5,0.6-1.3,1.1-2,1.3C1389,730.3,1388.2,730.2,1387.7,730.1L1387.7,730.1z M1389.5,730c0.6-0.2,1.4-0.7,1.9-1.2  c0.1-0.1,0.2-0.3,0.2-0.4c0-0.2-0.2-0.2-1-0.1c-1.1,0.1-3,0.1-4.1,0c-0.7-0.1-0.8-0.1-0.9,0c-0.1,0.1,0,0.3,0.5,0.8  C1387.1,729.9,1388.3,730.3,1389.5,730L1389.5,730z M1386.6,727.1c1.3-0.7,1.4-3.2,0.3-4.2c-1-0.9-2.4-0.1-2.6,1.6  C1384,726.3,1385.3,727.8,1386.6,727.1L1386.6,727.1z M1385.5,726.1c-0.1-0.1-0.2-0.2-0.3-0.4c-0.1-0.3-0.2-0.3-0.2-0.8  c0-0.5,0-0.6,0.2-0.8c0.4-0.7,1-0.7,1.4,0c0.1,0.2,0.1,0.4,0.1,0.8c0,0.4,0,0.6-0.1,0.8C1386.4,726.1,1385.9,726.3,1385.5,726.1  L1385.5,726.1z M1392.1,727.1c1.3-0.7,1.4-3.1,0.3-4.2c-0.9-0.8-2.1-0.4-2.5,0.9c-0.4,1.1-0.1,2.6,0.7,3.2  C1391.1,727.3,1391.6,727.4,1392.1,727.1L1392.1,727.1z M1391.1,726.2c-0.6-0.3-0.8-1.7-0.2-2.4c0.6-0.7,1.4,0.1,1.3,1.2  C1392.2,725.9,1391.6,726.5,1391.1,726.2L1391.1,726.2z M1394.8,726.7c0.1-0.3,0.1-0.6,0.1-1c0-0.5,0-0.6-0.2-0.9  c-0.2-0.5-0.5-0.8-1.1-1.1c-0.5-0.2-0.6-0.3-0.5-0.1c0.1,0.3,0.2,0.9,0.2,1.2c0,0.7-0.3,1.5-0.6,2c-0.1,0.1-0.1,0.2-0.1,0.2  c0,0,1,0.1,1.6,0.1l0.6,0L1394.8,726.7z M1389.8,726.2c-0.2-0.4-0.2-0.8-0.2-1.3c0-0.6,0.1-1.1,0.3-1.5c0.1-0.2,0.2-0.3,0.1-0.3  c0,0-0.2-0.1-0.4-0.1c-0.8-0.3-2.1-1.1-3.1-1.9l-0.5-0.4l-0.4,0.1c-0.5,0.1-0.8,0.3-1.1,0.6c-0.3,0.3-0.5,0.6-0.5,1  c0,0.4,0.1,0.8,0.2,0.9c0,0,0.2-0.1,0.4-0.3c0.6-0.6,1.3-0.8,1.9-0.4c0.8,0.4,1.3,1.6,1.2,2.7l0,0.3l0.5,0.2  c0.5,0.2,1.4,0.6,1.5,0.6C1389.8,726.4,1389.8,726.3,1389.8,726.2L1389.8,726.2z M1393.2,722.7c0.3-1.1-0.2-2.1-1.5-2.8  c-0.4-0.2-0.4-0.2-1-0.2c-0.4,0-0.6,0-1-0.1c-0.5-0.2-0.6-0.3-0.6-0.4c0-0.1,0.2,0,0.5,0.1c0.4,0.1,0.5,0.2,0.9,0.2l0.5,0l0.1-0.2  c0.1-0.5,0-0.9-0.4-1.5c-0.2-0.3-0.3-0.5-0.4-0.6c-0.1-0.3-0.1-0.7,0-1c0.1-0.1,0.1-0.3,0.1-0.3c0,0-0.1,0-0.2,0  c-1.8,0.2-4.3,2.9-4.2,4.4c0,0.4,0,0.3,0.8,1c0.9,0.8,2,1.4,2.9,1.7l0.4,0.1l0.2-0.2c0.4-0.3,0.6-0.4,1-0.4c0.4,0,0.5,0,0.7,0.2  c0.2,0.1,0.4,0.3,0.6,0.5l0.3,0.3l0.1-0.2C1393.1,723,1393.1,722.8,1393.2,722.7L1393.2,722.7z" />
<path
   id="path1746"
   class="st7"
   d="M1385.3,667.1c-3.6-0.9-6.3-3.9-6.8-7.5c-0.1-0.5-0.1-2.1,0-2.7c0.3-2.2,1.5-4.2,3.3-5.7  c1.3-1.1,2.8-1.7,4.5-2c0.6-0.1,2.1-0.1,2.7,0c3.7,0.5,6.7,3.2,7.6,6.7c0.2,0.9,0.3,1.3,0.3,2.3c0,1-0.1,1.4-0.3,2.3  c-0.8,3.2-3.4,5.7-6.6,6.6l-0.5,0.1l-1.8,0l-1.8,0L1385.3,667.1z M1388.9,666.6c2.4-0.4,4.6-1.7,5.9-3.8c0.9-1.4,1.4-2.9,1.4-4.6  c0-1.7-0.4-3.2-1.4-4.6c-1.4-2.1-3.6-3.5-6.1-3.8c-0.4-0.1-1.6-0.1-2,0c-1.9,0.2-3.6,1.1-5,2.4c-1.4,1.3-2.2,3.1-2.4,5  c-0.1,0.4-0.1,1.6,0,2c0.3,2.2,1.4,4.2,3.1,5.6c1.2,1,2.8,1.6,4.3,1.8C1387.2,666.7,1388.3,666.7,1388.9,666.6L1388.9,666.6z   M1383.7,662.1c-0.1-0.1-0.2-0.2-0.2-0.3c0-0.2,0.2-0.3,0.6-0.6c1.7-1.2,3.6-1.5,5.2-1c0.7,0.2,1.6,0.7,2.2,1.3  c0.2,0.2,0.3,0.3,0.3,0.4c0,0.2-0.3,0.4-0.5,0.3c-0.1,0-0.2-0.2-0.4-0.3c-1-0.9-2.2-1.3-3.5-1.2c-1.1,0.1-2.1,0.5-3.3,1.4  C1383.9,662.1,1383.8,662.2,1383.7,662.1L1383.7,662.1z M1384.1,657.5c-0.5-0.1-0.8-0.5-0.8-1c0-0.6,0.5-1,1.1-1  c1.1,0,1.5,1.4,0.5,1.9C1384.8,657.5,1384.3,657.6,1384.1,657.5L1384.1,657.5z M1390.5,657.5c-0.5-0.2-0.8-0.6-0.7-1.1  c0-0.2,0.1-0.4,0.3-0.6c0.5-0.5,1.5-0.3,1.7,0.4C1392.1,657,1391.3,657.8,1390.5,657.5L1390.5,657.5z" />
<path
   id="path1946"
   class="st7"
   d="M1352.4,741c-0.1-0.1-0.3-0.4-0.4-0.5c-0.9-1.1-1.7-2-3.8-3.8c-0.9-0.8-2-1.9-2.3-2.4  c-0.5-0.7-1-1.4-1.2-2.1c-0.2-0.6-0.2-0.7-0.2-2c0-1.4,0-1.5,0.3-2.1c0.6-1.2,1.7-2.2,3-2.5c0.3-0.1,0.4-0.1,1.1-0.1  c0.8,0,0.8,0,1.1,0.1c1,0.3,1.9,0.9,2.5,1.7c0.1,0.1,0.2,0.2,0.2,0.2c0,0,0.1-0.1,0.2-0.2c0.6-0.9,1.6-1.5,2.6-1.7  c0.2-0.1,0.4-0.1,1.1-0.1c0.8,0,0.8,0,1.1,0.1c0.8,0.2,1.4,0.6,2.1,1.2c0.6,0.6,1,1.3,1.2,2.1c0.1,0.3,0.1,0.4,0.1,1.2  c0,0.8,0,0.9-0.1,1.3c-0.2,0.7-0.5,1.4-0.9,2.1c-0.6,0.9-1.3,1.7-3,3.2c-2,1.8-3.1,3-3.9,4.2l-0.2,0.3h-0.2h-0.2L1352.4,741z   M1353,739.9c0.9-1.2,1.8-2.1,3.5-3.7c2-1.8,2.8-2.7,3.3-3.7c0.4-0.7,0.5-1.3,0.6-2.1c0.1-1.1-0.2-2.1-0.8-2.9  c-1.1-1.5-3.1-1.9-4.7-1.1c-0.9,0.4-1.4,1.1-2,2.1c-0.1,0.2-0.2,0.3-0.2,0.3c0,0-0.1-0.2-0.2-0.3c-0.5-1.1-1.1-1.7-2-2.1  c-2.4-1.2-5.3,0.4-5.6,3.2c-0.1,0.7,0.1,1.7,0.3,2.4c0.4,1.2,1.2,2.2,3.1,3.9c1.6,1.4,2,1.8,2.5,2.4c0.6,0.6,1.1,1.1,1.5,1.7  c0.1,0.2,0.3,0.3,0.3,0.3S1352.8,740.1,1353,739.9L1353,739.9z" />
<path
   id="path2046"
   class="st7"
   d="M1315.6,669.4c-1.6-0.3-2.8-1.3-3.2-2.8c-0.1-0.4-0.1-0.6-0.1-6.2v-5.7l0.1-0.4  c0.1-0.2,0.2-0.5,0.3-0.6c0.2-0.3,0.9-0.7,1.3-0.9c0.3-0.1,1.3-0.3,1.6-0.3c0.1,0,0.1-0.1-0.1-0.5c-0.8-1.2-0.7-3.3,0-5.5  c0.1-0.4,0.4-1.1,0.6-1.7c0.5-1.2,0.7-2.1,0.8-2.9c0-0.3,0.1-0.6,0.1-0.6c0.1,0,0.4,0.7,0.5,1.1c0.2,0.7,0.4,1.8,0.5,2.6  c0.1,1.4,0,3.4-0.3,4.8c-0.3,1.6-0.8,2.3-1.5,2.5c-0.4,0.1-0.2,0.2,0.5,0.3c1.8,0.1,2.8,0.7,3.2,1.7l0.2,0.4l0,5.6  c0,6.2,0,6.1-0.3,6.9c-0.4,1-1.4,1.8-2.5,2.1C1316.9,669.4,1316,669.5,1315.6,669.4L1315.6,669.4z M1317.6,668.5  c0.9-0.4,1.7-1.2,2-2.1c0.3-0.8,0.3-0.9,0.3-6.1c0-2.7,0-4.9,0-4.9c0,0-0.1,0.1-0.2,0.2c-1.4,1.4-5.4,1.4-6.8,0  c-0.1-0.1-0.2-0.2-0.2-0.2c0,0,0,2.3,0,5.2l0,5.2l0.2,0.5c0.4,1.2,1.3,2,2.5,2.4C1315.8,668.8,1317.1,668.7,1317.6,668.5  L1317.6,668.5z M1317.4,656.2c1.1-0.2,2-0.7,2.3-1.2c0.1-0.3,0.1-0.5,0-0.8c-0.3-0.7-1.7-1.2-3-1.2h-0.5l0,0.2  c0.1,0.6,0.1,0.6,0.6,0.7c0.7,0.1,1.2,0.4,1.2,0.8c0,0.2-0.2,0.4-0.5,0.6c-0.3,0.2-0.4,0.2-1.2,0.2c-0.9,0-1.3-0.1-1.6-0.4  c-0.2-0.2-0.2-0.5,0-0.7c0.2-0.2,0.6-0.4,0.9-0.4c0.2,0,0.3-0.1,0.2-0.2c0-0.1,0-0.3-0.1-0.4c0-0.3-0.1-0.3-0.7-0.2  c-1.2,0.2-2.2,0.9-2.2,1.6c0,0.6,0.6,1.1,1.6,1.5C1315.1,656.3,1316.5,656.3,1317.4,656.2L1317.4,656.2z M1316.8,654.8  c0.5-0.1,0.7-0.2,0.7-0.4c0-0.1-0.3-0.3-0.8-0.3c-0.3,0-0.4,0-0.3,0.1c0,0.1,0.1,0.1,0.2,0.2c0.2,0,0.3,0.1,0.3,0.2  c0,0.1-1.2,0.1-1.2,0c-0.1-0.1,0-0.2,0.2-0.2c0.1,0,0.1-0.1,0.1-0.2c0-0.1-0.1-0.1-0.4,0c-0.2,0.1-0.4,0.1-0.5,0.2  c-0.1,0.1-0.1,0.1,0,0.2C1315.4,654.9,1316.1,654.9,1316.8,654.8L1316.8,654.8z M1315.7,651.7c0-0.1,0-0.2-0.1-0.4  c-0.1-0.2-0.1-0.6-0.1-1.2c0-1.4,0.2-2,0.9-3.6c0.2-0.5,0.5-1.1,0.5-1.2c0.1-0.3,0.2-1,0.3-1.5c0-0.2,0-0.3,0.1-0.2  c0.1,0.2,0.2,1.2,0.3,2.1l0.1,0.9l0-0.6c0.1-1.1-0.1-2.3-0.4-3.3c-0.3-0.8-0.3-0.8-0.4,0c-0.1,0.9-0.4,1.7-1,3.5  c-0.6,1.8-0.8,2.5-0.8,3.5c0,0.8,0,1.2,0.2,1.7C1315.6,651.8,1315.7,651.9,1315.7,651.7L1315.7,651.7z M1316.7,651.7  c0.6-0.4,1.1-2,1.2-3.8c0-0.3,0-0.3-0.1,0.2c-0.3,1.6-0.6,2.6-1.1,3c-0.1,0.1-0.2,0.2-0.2,0.2c0,0,0.1-0.2,0.3-0.5  c0.6-0.9,0.9-2.1,0.9-3.8c0-0.9-0.1-2.5-0.2-2.6c0,0,0,0.1-0.1,0.3c-0.1,0.6-0.2,0.9-0.7,1.9c-0.7,1.4-0.9,2.2-0.9,3.5  c0,0.8,0.1,1,0.2,0.6c0.1-0.4,0.5-0.9,0.6-0.9c0.2,0,0.3,0.1,0.3,0.4c0,0.2-0.2,0.4-0.3,0.3c-0.1-0.1-0.4,0.7-0.4,1.1  C1316.1,651.9,1316.4,651.9,1316.7,651.7L1316.7,651.7z" />
<text
   transform="matrix(0.9761 0 0 1 1284.4775 696.2095)"
   class="st8 st9"
   id="text31">OMG</text>
<text
   transform="matrix(1 0 0 1 1391.0703 696.2092)"
   class="st8 st9"
   id="text33">BRB</text>
<text
   transform="matrix(1.0347 0 0 1 1334.4473 650.3682)"
   class="st8 st10"
   id="text35">LOL</text>
<text
   transform="matrix(0.817 -0.5511 0.5592 0.829 1462.8687 726.0009)"
   class="st11 st12"
   id="text37">Off</text>
<text
   transform="matrix(0.9138 -0.3692 0.3746 0.9272 1446.8558 711.1744)"
   class="st11 st12"
   id="text39">Red</text>
<text
   transform="matrix(0.6346 -3.138142e-02 4.939000e-02 0.9988 1441.5231 686.9319)"
   class="st11 st12"
   id="text41">Orange</text>
<text
   transform="matrix(0.5763 0.2148 -0.3493 0.937 1450.3239 660.1721)"
   class="st11 st13"
   id="text43">Yellow</text>
<text
   transform="matrix(0.2517 0.4801 -0.8857 0.4643 1474.5732 639.7659)"
   class="st11 st14"
   id="text45">Green</text>
<text
   transform="matrix(0.5763 -0.8224 0.8189 0.5739 1512.2866 667.1623)"
   class="st11 st15"
   id="text47">Blue</text>
<text
   transform="matrix(0.4624 -0.3694 0.6242 0.7813 1525.1512 679.3707)"
   class="st11 st16"
   id="text49">Indigo</text>
<text
   transform="matrix(0.5553 9.535360e-03 -1.717000e-02 0.9999 1527.4255 694.7867)"
   class="st11 st17"
   id="text51">Violet</text>
<text
   transform="matrix(0.4562 0.3197 -0.5739 0.8189 1524.6727 708.277)"
   class="st11 st18"
   id="text53">White</text>
<text
   transform="matrix(0.9829 0 0 1 1421.0381 791.4004)"
   class="st19 st20"
   id="text55">SEND!</text>

</svg>
