<?xml version="1.0" encoding="UTF-8" standalone="no"?>
<svg
   height="243.60mm"
   viewBox="0.0 0.0 331.06 243.60"
   width="331.06mm"
   version="1.1"
   id="svg41"
   sodipodi:docname="LOL-RaLamp8x8LaserCut.svg"
   inkscape:version="1.1 (c68e22c387, 2021-05-23)"
   xmlns:inkscape="http://www.inkscape.org/namespaces/inkscape"
   xmlns:sodipodi="http://sodipodi.sourceforge.net/DTD/sodipodi-0.dtd"
   xmlns="http://www.w3.org/2000/svg"
   xmlns:svg="http://www.w3.org/2000/svg"
   xmlns:rdf="http://www.w3.org/1999/02/22-rdf-syntax-ns#"
   xmlns:cc="http://creativecommons.org/ns#"
   xmlns:dc="http://purl.org/dc/elements/1.1/">
  <defs
     id="defs45" />
  <sodipodi:namedview
     id="namedview43"
     pagecolor="#ffffff"
     bordercolor="#666666"
     borderopacity="1.0"
     inkscape:pageshadow="2"
     inkscape:pageopacity="0.0"
     inkscape:pagecheckerboard="0"
     inkscape:document-units="mm"
     showgrid="false"
     inkscape:snap-global="false"
     inkscape:zoom="1.4142136"
     inkscape:cx="854.53855"
     inkscape:cy="564.62477"
     inkscape:window-width="1920"
     inkscape:window-height="1121"
     inkscape:window-x="-9"
     inkscape:window-y="-9"
     inkscape:window-maximized="1"
     inkscape:current-layer="svg41" />
  <!--
RoundedBox - Box with vertical edges rounded



Default: edge_style = f Finger Joint:
![Finger Joint](static/samples/RoundedBox-2.jpg)

Alternative: edge_style = h Edge (parallel Finger Joint Holes):
![Finger Joint Holes](static/samples/RoundedBox-3.jpg)

With lid:



Created with Boxes.py (https://festi.info/boxes.py)
Creation date: 2021-11-11 22:12:10
Command line (remove spaces between dashes): boxes RoundedBox - -FingerJoint_angle=90.0 - -FingerJoint_style=rectangular - -FingerJoint_surroundingspaces=2.0 - -FingerJoint_edge_width=1.0 - -FingerJoint_finger=2.0 - -FingerJoint_play=0.0 - -FingerJoint_space=2.0 - -FingerJoint_width=1.0 - -Flex_stretch=1.05 - -Flex_connection=1.0 - -Flex_distance=0.5 - -Flex_width=5.0 - -x=100.0 - -y=80.0 - -h=130.0 - -outside=0 - -outside=1 - -radius=15 - -wallpieces=1 - -edge_style=f - -top=lid - -thickness=3.0 - -format=svg - -tabs=0.0 - -debug=0 - -labels=0 - -labels=1 - -reference=100 - -burn=0.1
Url: http://www.festi.info/RoundedBox?FingerJoint_angle=90.0&FingerJoint_style=rectangular&FingerJoint_surroundingspaces=2.0&FingerJoint_edge_width=1.0&FingerJoint_finger=2.0&FingerJoint_play=0.0&FingerJoint_space=2.0&FingerJoint_width=1.0&Flex_stretch=1.05&Flex_connection=1.0&Flex_distance=0.5&Flex_width=5.0&x=100.0&y=80.0&h=130.0&outside=0&outside=1&radius=15&wallpieces=1&edge_style=f&top=lid&thickness=3.0&format=svg&tabs=0.0&debug=0&labels=0&labels=1&reference=100&burn=0.1&render=1
SettingsUrl: http://www.festi.info/RoundedBox?FingerJoint_angle=90.0&FingerJoint_style=rectangular&FingerJoint_surroundingspaces=2.0&FingerJoint_edge_width=1.0&FingerJoint_finger=2.0&FingerJoint_play=0.0&FingerJoint_space=2.0&FingerJoint_width=1.0&Flex_stretch=1.05&Flex_connection=1.0&Flex_distance=0.5&Flex_width=5.0&x=100.0&y=80.0&h=130.0&outside=0&outside=1&radius=15&wallpieces=1&edge_style=f&top=lid&thickness=3.0&format=svg&tabs=0.0&debug=0&labels=0&labels=1&reference=100&burn=0.1
-->
  <title
     id="title2">RoundedBox</title>
  <metadata
     id="metadata4">
    <rdf:RDF>
      <cc:Work>
        <dc:title>RoundedBox</dc:title>
        <dc:date>2021-11-11 22:12:10</dc:date>
        <dc:source>http://www.festi.info/RoundedBox?FingerJoint_angle=90.0&amp;FingerJoint_style=rectangular&amp;FingerJoint_surroundingspaces=2.0&amp;FingerJoint_edge_width=1.0&amp;FingerJoint_finger=2.0&amp;FingerJoint_play=0.0&amp;FingerJoint_space=2.0&amp;FingerJoint_width=1.0&amp;Flex_stretch=1.05&amp;Flex_connection=1.0&amp;Flex_distance=0.5&amp;Flex_width=5.0&amp;x=100.0&amp;y=80.0&amp;h=130.0&amp;outside=0&amp;outside=1&amp;radius=15&amp;wallpieces=1&amp;edge_style=f&amp;top=lid&amp;thickness=3.0&amp;format=svg&amp;tabs=0.0&amp;debug=0&amp;labels=0&amp;labels=1&amp;reference=100&amp;burn=0.1&amp;render=1</dc:source>
        <dc:description>Box with vertical edges rounded


Default: edge_style = f Finger Joint:
![Finger Joint](static/samples/RoundedBox-2.jpg)

Alternative: edge_style = h Edge (parallel Finger Joint Holes):
![Finger Joint Holes](static/samples/RoundedBox-3.jpg)

With lid:


Created with Boxes.py (https://festi.info/boxes.py)
Command line: boxes RoundedBox --FingerJoint_angle=90.0 --FingerJoint_style=rectangular --FingerJoint_surroundingspaces=2.0 --FingerJoint_edge_width=1.0 --FingerJoint_finger=2.0 --FingerJoint_play=0.0 --FingerJoint_space=2.0 --FingerJoint_width=1.0 --Flex_stretch=1.05 --Flex_connection=1.0 --Flex_distance=0.5 --Flex_width=5.0 --x=100.0 --y=80.0 --h=130.0 --outside=0 --outside=1 --radius=15 --wallpieces=1 --edge_style=f --top=lid --thickness=3.0 --format=svg --tabs=0.0 --debug=0 --labels=0 --labels=1 --reference=100 --burn=0.1
Url: http://www.festi.info/RoundedBox?FingerJoint_angle=90.0&amp;FingerJoint_style=rectangular&amp;FingerJoint_surroundingspaces=2.0&amp;FingerJoint_edge_width=1.0&amp;FingerJoint_finger=2.0&amp;FingerJoint_play=0.0&amp;FingerJoint_space=2.0&amp;FingerJoint_width=1.0&amp;Flex_stretch=1.05&amp;Flex_connection=1.0&amp;Flex_distance=0.5&amp;Flex_width=5.0&amp;x=100.0&amp;y=80.0&amp;h=130.0&amp;outside=0&amp;outside=1&amp;radius=15&amp;wallpieces=1&amp;edge_style=f&amp;top=lid&amp;thickness=3.0&amp;format=svg&amp;tabs=0.0&amp;debug=0&amp;labels=0&amp;labels=1&amp;reference=100&amp;burn=0.1&amp;render=1
SettingsUrl: http://www.festi.info/RoundedBox?FingerJoint_angle=90.0&amp;FingerJoint_style=rectangular&amp;FingerJoint_surroundingspaces=2.0&amp;FingerJoint_edge_width=1.0&amp;FingerJoint_finger=2.0&amp;FingerJoint_play=0.0&amp;FingerJoint_space=2.0&amp;FingerJoint_width=1.0&amp;Flex_stretch=1.05&amp;Flex_connection=1.0&amp;Flex_distance=0.5&amp;Flex_width=5.0&amp;x=100.0&amp;y=80.0&amp;h=130.0&amp;outside=0&amp;outside=1&amp;radius=15&amp;wallpieces=1&amp;edge_style=f&amp;top=lid&amp;thickness=3.0&amp;format=svg&amp;tabs=0.0&amp;debug=0&amp;labels=0&amp;labels=1&amp;reference=100&amp;burn=0.1
</dc:description>
      </cc:Work>
    </rdf:RDF>
  </metadata>
  <g
     id="p-1"
     style="fill:none;stroke-linecap:round;stroke-linejoin:round;stroke:#000000;stroke-opacity:1;stroke-width:0.019;stroke-miterlimit:4;stroke-dasharray:none">
    <text
       alignment-baseline="hanging"
       font-size="4px"
       style="font-family:sans-serif;font-weight:normal;font-style:normal;fill:rgb(255, 0, 0);stroke:#000000;stroke-opacity:1;stroke-width:0.019;stroke-miterlimit:4;stroke-dasharray:none"
       text-anchor="middle"
       transform="matrix( 1.000 0.000 0.000 1.000 60.100 179.900 )"
       id="text13" />
    <path
       d="M 28.100 218.900 H 35.000 C 35.100 218.900 35.000 218.800 35.000 218.900 V 221.800 C 35.000 221.855 35.045 221.900 35.100 221.900 H 41.100 C 41.155 221.900 41.200 221.855 41.200 221.800 V 218.900 C 41.200 218.800 41.100 218.900 41.200 218.900 H 47.000 C 47.100 218.900 47.000 218.800 47.000 218.900 V 221.800 C 47.000 221.855 47.045 221.900 47.100 221.900 H 53.100 C 53.155 221.900 53.200 221.855 53.200 221.800 V 218.900 C 53.200 218.800 53.100 218.900 53.200 218.900 H 60.100 H 67.000 C 67.100 218.900 67.000 218.800 67.000 218.900 V 221.800 C 67.000 221.855 67.045 221.900 67.100 221.900 H 73.100 C 73.155 221.900 73.200 221.855 73.200 221.800 V 218.900 C 73.200 218.800 73.100 218.900 73.200 218.900 H 79.000 C 79.100 218.900 79.000 218.800 79.000 218.900 V 221.800 C 79.000 221.855 79.045 221.900 79.100 221.900 H 85.100 C 85.155 221.900 85.200 221.855 85.200 221.800 V 218.900 C 85.200 218.800 85.100 218.900 85.200 218.900 H 92.100 C 94.751 218.900 97.355 218.202 99.650 216.877 C 101.945 215.552 103.852 213.645 105.177 211.350 C 106.502 209.055 107.200 206.451 107.200 203.800 V 196.900 C 107.200 196.800 107.100 196.900 107.200 196.900 H 110.100 C 110.155 196.900 110.200 196.855 110.200 196.800 V 190.800 C 110.200 190.745 110.155 190.700 110.100 190.700 H 107.200 C 107.100 190.700 107.200 190.800 107.200 190.700 V 184.900 C 107.200 184.800 107.100 184.900 107.200 184.900 H 110.100 C 110.155 184.900 110.200 184.855 110.200 184.800 V 178.800 C 110.200 178.745 110.155 178.700 110.100 178.700 H 107.200 C 107.100 178.700 107.200 178.800 107.200 178.700 V 172.900 C 107.200 172.800 107.100 172.900 107.200 172.900 H 110.100 C 110.155 172.900 110.200 172.855 110.200 172.800 V 166.800 C 110.200 166.745 110.155 166.700 110.100 166.700 H 107.200 C 107.100 166.700 107.200 166.800 107.200 166.700 V 159.800 C 107.200 157.149 106.502 154.545 105.177 152.250 C 103.852 149.955 101.945 148.048 99.650 146.723 C 97.355 145.398 94.751 144.700 92.100 144.700 H 81.200 C 81.100 144.700 81.200 144.800 81.200 144.700 V 141.800 C 81.200 141.745 81.155 141.700 81.100 141.700 H 75.100 C 75.045 141.700 75.000 141.745 75.000 141.800 V 144.700 C 75.000 144.800 75.100 144.700 75.000 144.700 H 69.200 C 69.100 144.700 69.200 144.800 69.200 144.700 V 141.800 C 69.200 141.745 69.155 141.700 69.100 141.700 H 63.100 C 63.045 141.700 63.000 141.745 63.000 141.800 V 144.700 C 63.000 144.800 63.100 144.700 63.000 144.700 H 57.200 C 57.100 144.700 57.200 144.800 57.200 144.700 V 141.800 C 57.200 141.745 57.155 141.700 57.100 141.700 H 51.100 C 51.045 141.700 51.000 141.745 51.000 141.800 V 144.700 C 51.000 144.800 51.100 144.700 51.000 144.700 H 45.200 C 45.100 144.700 45.200 144.800 45.200 144.700 V 141.800 C 45.200 141.745 45.155 141.700 45.100 141.700 H 39.100 C 39.045 141.700 39.000 141.745 39.000 141.800 V 144.700 C 39.000 144.800 39.100 144.700 39.000 144.700 H 28.100 C 25.449 144.700 22.845 145.398 20.550 146.723 C 18.255 148.048 16.348 149.955 15.023 152.250 C 13.698 154.545 13.000 157.149 13.000 159.800 V 166.700 C 13.000 166.800 13.100 166.700 13.000 166.700 H 10.100 C 10.045 166.700 10.000 166.745 10.000 166.800 V 172.800 C 10.000 172.855 10.045 172.900 10.100 172.900 H 13.000 C 13.100 172.900 13.000 172.800 13.000 172.900 V 178.700 C 13.000 178.800 13.100 178.700 13.000 178.700 H 10.100 C 10.045 178.700 10.000 178.745 10.000 178.800 V 184.800 C 10.000 184.855 10.045 184.900 10.100 184.900 H 13.000 C 13.100 184.900 13.000 184.800 13.000 184.900 V 190.700 C 13.000 190.800 13.100 190.700 13.000 190.700 H 10.100 C 10.045 190.700 10.000 190.745 10.000 190.800 V 196.800 C 10.000 196.855 10.045 196.900 10.100 196.900 H 13.000 C 13.100 196.900 13.000 196.800 13.000 196.900 V 203.800 C 13.000 206.451 13.698 209.055 15.023 211.350 C 16.348 213.645 18.255 215.552 20.550 216.877 C 22.845 218.202 25.449 218.900 28.100 218.900"
       stroke="rgb(0,0,0)"
       stroke-width="0.20"
       id="path15"
       style="stroke:#000000;stroke-opacity:1;stroke-width:0.019;stroke-miterlimit:4;stroke-dasharray:none" />
  </g>
  <g
     id="p-2"
     style="fill:none;stroke-linecap:round;stroke-linejoin:round;stroke:#000000;stroke-opacity:1;stroke-width:0.019;stroke-miterlimit:4;stroke-dasharray:none">
    <text
       alignment-baseline="hanging"
       font-size="4px"
       style="font-family:sans-serif;font-weight:normal;font-style:normal;fill:rgb(255, 0, 0);stroke:#000000;stroke-opacity:1;stroke-width:0.019;stroke-miterlimit:4;stroke-dasharray:none"
       text-anchor="middle"
       transform="matrix( 1.000 0.000 0.000 1.000 161.800 179.900 )"
       id="text18" />
    <path
       d="M 129.800 212.800 H 193.800 C 195.397 212.800 196.967 212.380 198.350 211.581 C 199.733 210.782 200.882 209.633 201.681 208.250 C 202.480 206.867 202.900 205.297 202.900 203.700 V 159.700 C 202.900 158.103 202.480 156.533 201.681 155.150 C 200.882 153.767 199.733 152.618 198.350 151.819 C 196.967 151.020 195.397 150.600 193.800 150.600 H 129.800 C 128.203 150.600 126.633 151.020 125.250 151.819 C 123.867 152.618 122.718 153.767 121.919 155.150 C 121.120 156.533 120.700 158.103 120.700 159.700 V 203.700 C 120.700 205.297 121.120 206.867 121.919 208.250 C 122.718 209.633 123.867 210.782 125.250 211.581 C 126.633 212.380 128.203 212.800 129.800 212.800 Z M 129.800 218.900 H 136.700 C 136.800 218.900 136.700 218.800 136.700 218.900 V 221.800 C 136.700 221.855 136.745 221.900 136.800 221.900 H 142.800 C 142.855 221.900 142.900 221.855 142.900 221.800 V 218.900 C 142.900 218.800 142.800 218.900 142.900 218.900 H 148.700 C 148.800 218.900 148.700 218.800 148.700 218.900 V 221.800 C 148.700 221.855 148.745 221.900 148.800 221.900 H 154.800 C 154.855 221.900 154.900 221.855 154.900 221.800 V 218.900 C 154.900 218.800 154.800 218.900 154.900 218.900 H 161.800 H 168.700 C 168.800 218.900 168.700 218.800 168.700 218.900 V 221.800 C 168.700 221.855 168.745 221.900 168.800 221.900 H 174.800 C 174.855 221.900 174.900 221.855 174.900 221.800 V 218.900 C 174.900 218.800 174.800 218.900 174.900 218.900 H 180.700 C 180.800 218.900 180.700 218.800 180.700 218.900 V 221.800 C 180.700 221.855 180.745 221.900 180.800 221.900 H 186.800 C 186.855 221.900 186.900 221.855 186.900 221.800 V 218.900 C 186.900 218.800 186.800 218.900 186.900 218.900 H 193.800 C 196.451 218.900 199.055 218.202 201.350 216.877 C 203.645 215.552 205.552 213.645 206.877 211.350 C 208.202 209.055 208.900 206.451 208.900 203.800 V 196.900 C 208.900 196.800 208.800 196.900 208.900 196.900 H 211.800 C 211.855 196.900 211.900 196.855 211.900 196.800 V 190.800 C 211.900 190.745 211.855 190.700 211.800 190.700 H 208.900 C 208.800 190.700 208.900 190.800 208.900 190.700 V 184.900 C 208.900 184.800 208.800 184.900 208.900 184.900 H 211.800 C 211.855 184.900 211.900 184.855 211.900 184.800 V 178.800 C 211.900 178.745 211.855 178.700 211.800 178.700 H 208.900 C 208.800 178.700 208.900 178.800 208.900 178.700 V 172.900 C 208.900 172.800 208.800 172.900 208.900 172.900 H 211.800 C 211.855 172.900 211.900 172.855 211.900 172.800 V 166.800 C 211.900 166.745 211.855 166.700 211.800 166.700 H 208.900 C 208.800 166.700 208.900 166.800 208.900 166.700 V 159.800 C 208.900 157.149 208.202 154.545 206.877 152.250 C 205.552 149.955 203.645 148.048 201.350 146.723 C 199.055 145.398 196.451 144.700 193.800 144.700 H 182.900 C 182.800 144.700 182.900 144.800 182.900 144.700 V 141.800 C 182.900 141.745 182.855 141.700 182.800 141.700 H 176.800 C 176.745 141.700 176.700 141.745 176.700 141.800 V 144.700 C 176.700 144.800 176.800 144.700 176.700 144.700 H 170.900 C 170.800 144.700 170.900 144.800 170.900 144.700 V 141.800 C 170.900 141.745 170.855 141.700 170.800 141.700 H 164.800 C 164.745 141.700 164.700 141.745 164.700 141.800 V 144.700 C 164.700 144.800 164.800 144.700 164.700 144.700 H 158.900 C 158.800 144.700 158.900 144.800 158.900 144.700 V 141.800 C 158.900 141.745 158.855 141.700 158.800 141.700 H 152.800 C 152.745 141.700 152.700 141.745 152.700 141.800 V 144.700 C 152.700 144.800 152.800 144.700 152.700 144.700 H 146.900 C 146.800 144.700 146.900 144.800 146.900 144.700 V 141.800 C 146.900 141.745 146.855 141.700 146.800 141.700 H 140.800 C 140.745 141.700 140.700 141.745 140.700 141.800 V 144.700 C 140.700 144.800 140.800 144.700 140.700 144.700 H 129.800 C 127.149 144.700 124.545 145.398 122.250 146.723 C 119.955 148.048 118.048 149.955 116.723 152.250 C 115.398 154.545 114.700 157.149 114.700 159.800 V 166.700 C 114.700 166.800 114.800 166.700 114.700 166.700 H 111.800 C 111.745 166.700 111.700 166.745 111.700 166.800 V 172.800 C 111.700 172.855 111.745 172.900 111.800 172.900 H 114.700 C 114.800 172.900 114.700 172.800 114.700 172.900 V 178.700 C 114.700 178.800 114.800 178.700 114.700 178.700 H 111.800 C 111.745 178.700 111.700 178.745 111.700 178.800 V 184.800 C 111.700 184.855 111.745 184.900 111.800 184.900 H 114.700 C 114.800 184.900 114.700 184.800 114.700 184.900 V 190.700 C 114.700 190.800 114.800 190.700 114.700 190.700 H 111.800 C 111.745 190.700 111.700 190.745 111.700 190.800 V 196.800 C 111.700 196.855 111.745 196.900 111.800 196.900 H 114.700 C 114.800 196.900 114.700 196.800 114.700 196.900 V 203.800 C 114.700 206.451 115.398 209.055 116.723 211.350 C 118.048 213.645 119.955 215.552 122.250 216.877 C 124.545 218.202 127.149 218.900 129.800 218.900"
       stroke="rgb(0,0,0)"
       stroke-width="0.20"
       id="path20"
       style="stroke:#000000;stroke-opacity:1;stroke-width:0.019;stroke-miterlimit:4;stroke-dasharray:none" />
  </g>
  <g
     id="p-3"
     style="fill:none;stroke-linecap:round;stroke-linejoin:round;stroke:#000000;stroke-width:0.019;stroke-miterlimit:4;stroke-dasharray:none;stroke-opacity:1">
    <text
       alignment-baseline="hanging"
       font-size="4px"
       style="font-family:sans-serif;font-weight:normal;font-style:normal;fill:rgb(255, 0, 0);stroke:#000000;stroke-width:0.019;stroke-miterlimit:4;stroke-dasharray:none;stroke-opacity:1"
       text-anchor="middle"
       transform="matrix( 1.000 0.000 0.000 1.000 263.500 179.900 )"
       id="text23" />
    <path
       d="M 231.500 221.900 H 263.500 H 295.500 C 298.677 221.900 301.798 221.064 304.550 219.475 C 307.302 217.886 309.586 215.602 311.175 212.850 C 312.764 210.098 313.600 206.977 313.600 203.800 V 159.800 C 313.600 156.623 312.764 153.502 311.175 150.750 C 309.586 147.998 307.302 145.714 304.550 144.125 C 301.798 142.536 298.677 141.700 295.500 141.700 H 231.500 C 228.323 141.700 225.202 142.536 222.450 144.125 C 219.698 145.714 217.414 147.998 215.825 150.750 C 214.236 153.502 213.400 156.623 213.400 159.800 V 203.800 C 213.400 206.977 214.236 210.098 215.825 212.850 C 217.414 215.602 219.698 217.886 222.450 219.475 C 225.202 221.064 228.323 221.900 231.500 221.900"
       stroke="rgb(0,0,0)"
       stroke-width="0.20"
       id="path25"
       style="stroke:#000000;stroke-width:0.019;stroke-miterlimit:4;stroke-dasharray:none;stroke-opacity:1" />
  </g>
  <g
     id="p-3-8"
     style="fill:none;stroke:#000000;stroke-width:0.019;stroke-linecap:round;stroke-linejoin:round;stroke-miterlimit:4;stroke-dasharray:none;stroke-opacity:1"
     transform="matrix(0.74612733,0,0,0.68281042,-35.895387,58.46361)">
    <text
       alignment-baseline="hanging"
       font-size="4px"
       style="font-style:normal;font-weight:normal;font-family:sans-serif;fill:#ff0000;stroke:#000000;stroke-width:0.019;stroke-miterlimit:4;stroke-dasharray:none;stroke-opacity:1"
       text-anchor="middle"
       transform="translate(263.5,179.9)"
       id="text23-5" />
    <path
       d="m 231.5,221.9 h 32 32 c 3.177,0 6.298,-0.836 9.05,-2.425 2.752,-1.589 5.036,-3.873 6.625,-6.625 1.589,-2.752 2.425,-5.873 2.425,-9.05 v -44 c 0,-3.177 -0.836,-6.298 -2.425,-9.05 -1.589,-2.752 -3.873,-5.036 -6.625,-6.625 -2.752,-1.589 -5.873,-2.425 -9.05,-2.425 h -64 c -3.177,0 -6.298,0.836 -9.05,2.425 -2.752,1.589 -5.036,3.873 -6.625,6.625 -1.589,2.752 -2.425,5.873 -2.425,9.05 v 44 c 0,3.177 0.836,6.298 2.425,9.05 1.589,2.752 3.873,5.036 6.625,6.625 2.752,1.589 5.873,2.425 9.05,2.425"
       stroke="rgb(0,0,0)"
       stroke-width="0.20"
       id="path25-1"
       style="stroke:#000000;stroke-width:0.019;stroke-miterlimit:4;stroke-dasharray:none;stroke-opacity:1" />
  </g>
  <g
     id="p-4"
     style="fill:none;stroke-linecap:round;stroke-linejoin:round;stroke:#000000;stroke-opacity:1;stroke-width:0.019;stroke-miterlimit:4;stroke-dasharray:none">
    <text
       alignment-baseline="hanging"
       font-size="4px"
       style="font-family:sans-serif;font-weight:normal;font-style:normal;fill:rgb(255, 0, 0);stroke:#000000;stroke-opacity:1;stroke-width:0.019;stroke-miterlimit:4;stroke-dasharray:none"
       text-anchor="middle"
       transform="matrix( 1.000 0.000 0.000 1.000 166.379 73.200 )"
       id="text28" />
    <path
       d="M 10.100 140.200 H 17.100 C 17.155 140.200 17.200 140.155 17.200 140.100 V 137.200 C 17.200 137.100 17.100 137.200 17.200 137.200 H 23.000 C 23.100 137.200 23.000 137.100 23.000 137.200 V 140.100 C 23.000 140.155 23.045 140.200 23.100 140.200 H 29.100 C 29.155 140.200 29.200 140.155 29.200 140.100 V 137.200 C 29.200 137.100 29.100 137.200 29.200 137.200 H 35.000 C 35.100 137.200 35.000 137.100 35.000 137.200 V 140.100 C 35.000 140.155 35.045 140.200 35.100 140.200 H 42.100 H 64.690 H 71.690 C 71.745 140.200 71.790 140.155 71.790 140.100 V 137.200 C 71.790 137.100 71.690 137.200 71.790 137.200 H 77.590 C 77.690 137.200 77.590 137.100 77.590 137.200 V 140.100 C 77.590 140.155 77.634 140.200 77.690 140.200 H 83.690 C 83.745 140.200 83.790 140.155 83.790 140.100 V 137.200 C 83.790 137.100 83.690 137.200 83.790 137.200 H 89.590 C 89.690 137.200 89.590 137.100 89.590 137.200 V 140.100 C 89.590 140.155 89.634 140.200 89.690 140.200 H 95.690 C 95.745 140.200 95.790 140.155 95.790 140.100 V 137.200 C 95.790 137.100 95.690 137.200 95.790 137.200 H 101.590 C 101.690 137.200 101.590 137.100 101.590 137.200 V 140.100 C 101.590 140.155 101.634 140.200 101.690 140.200 H 108.690 H 131.279 H 142.279 C 142.334 140.200 142.379 140.155 142.379 140.100 V 137.200 C 142.379 137.100 142.279 137.200 142.379 137.200 H 148.179 C 148.279 137.200 148.179 137.100 148.179 137.200 V 140.100 C 148.179 140.155 148.224 140.200 148.279 140.200 H 154.279 C 154.334 140.200 154.379 140.155 154.379 140.100 V 137.200 C 154.379 137.100 154.279 137.200 154.379 137.200 H 160.179 C 160.279 137.200 160.179 137.100 160.179 137.200 V 140.100 C 160.179 140.155 160.224 140.200 160.279 140.200 H 166.279 C 166.334 140.200 166.379 140.155 166.379 140.100 V 137.200 C 166.379 137.100 166.279 137.200 166.379 137.200 H 172.179 C 172.279 137.200 172.179 137.100 172.179 137.200 V 140.100 C 172.179 140.155 172.224 140.200 172.279 140.200 H 178.279 C 178.334 140.200 178.379 140.155 178.379 140.100 V 137.200 C 178.379 137.100 178.279 137.200 178.379 137.200 H 184.179 C 184.279 137.200 184.179 137.100 184.179 137.200 V 140.100 C 184.179 140.155 184.224 140.200 184.279 140.200 H 195.279 H 217.869 H 224.869 C 224.924 140.200 224.969 140.155 224.969 140.100 V 137.200 C 224.969 137.100 224.869 137.200 224.969 137.200 H 230.769 C 230.869 137.200 230.769 137.100 230.769 137.200 V 140.100 C 230.769 140.155 230.813 140.200 230.869 140.200 H 236.869 C 236.924 140.200 236.969 140.155 236.969 140.100 V 137.200 C 236.969 137.100 236.869 137.200 236.969 137.200 H 242.769 C 242.869 137.200 242.769 137.100 242.769 137.200 V 140.100 C 242.769 140.155 242.813 140.200 242.869 140.200 H 248.869 C 248.924 140.200 248.969 140.155 248.969 140.100 V 137.200 C 248.969 137.100 248.869 137.200 248.969 137.200 H 254.769 C 254.869 137.200 254.769 137.100 254.769 137.200 V 140.100 C 254.769 140.155 254.813 140.200 254.869 140.200 H 261.869 H 284.458 H 291.458 C 291.513 140.200 291.558 140.155 291.558 140.100 V 137.200 C 291.558 137.100 291.458 137.200 291.558 137.200 H 297.358 C 297.458 137.200 297.358 137.100 297.358 137.200 V 140.100 C 297.358 140.155 297.403 140.200 297.458 140.200 H 303.458 C 303.513 140.200 303.558 140.155 303.558 140.100 V 137.200 C 303.558 137.100 303.458 137.200 303.558 137.200 H 309.358 C 309.458 137.200 309.358 137.100 309.358 137.200 V 140.100 C 309.358 140.155 309.403 140.200 309.458 140.200 H 316.458 C 316.513 140.200 316.558 140.155 316.558 140.100 V 137.100 V 123.567 C 316.558 123.464 316.590 123.364 316.649 123.280 C 316.707 123.196 316.791 123.132 316.887 123.097 C 316.984 123.062 317.088 123.058 317.188 123.084 C 317.287 123.111 317.375 123.167 317.441 123.246 L 319.822 126.083 C 319.914 126.193 320.038 126.272 320.177 126.309 C 320.316 126.346 320.463 126.340 320.598 126.291 C 320.733 126.242 320.849 126.152 320.932 126.034 C 321.014 125.917 321.058 125.777 321.058 125.633 V 114.567 C 321.058 114.423 321.014 114.283 320.932 114.166 C 320.849 114.048 320.733 113.958 320.598 113.909 C 320.463 113.860 320.316 113.854 320.177 113.891 C 320.038 113.928 319.914 114.007 319.822 114.117 L 317.441 116.954 C 317.375 117.033 317.287 117.089 317.188 117.116 C 317.088 117.142 316.984 117.138 316.887 117.103 C 316.791 117.068 316.707 117.004 316.649 116.920 C 316.590 116.836 316.558 116.736 316.558 116.633 V 105.567 C 316.558 105.464 316.590 105.364 316.649 105.280 C 316.707 105.196 316.791 105.132 316.887 105.097 C 316.984 105.062 317.088 105.058 317.188 105.084 C 317.287 105.111 317.375 105.167 317.441 105.246 L 319.822 108.083 C 319.914 108.193 320.038 108.272 320.177 108.309 C 320.316 108.346 320.463 108.340 320.598 108.291 C 320.733 108.242 320.849 108.152 320.932 108.034 C 321.014 107.917 321.058 107.777 321.058 107.633 V 96.567 C 321.058 96.423 321.014 96.283 320.932 96.166 C 320.849 96.048 320.733 95.958 320.598 95.909 C 320.463 95.860 320.316 95.854 320.177 95.891 C 320.038 95.928 319.914 96.007 319.822 96.117 L 317.441 98.954 C 317.375 99.033 317.287 99.089 317.188 99.116 C 317.088 99.142 316.984 99.138 316.887 99.103 C 316.791 99.068 316.707 99.004 316.649 98.920 C 316.590 98.836 316.558 98.736 316.558 98.633 V 87.567 C 316.558 87.464 316.590 87.364 316.649 87.280 C 316.707 87.196 316.791 87.132 316.887 87.097 C 316.984 87.062 317.088 87.058 317.188 87.084 C 317.287 87.111 317.375 87.167 317.441 87.246 L 319.822 90.083 C 319.914 90.193 320.038 90.272 320.177 90.309 C 320.316 90.346 320.463 90.340 320.598 90.291 C 320.733 90.242 320.849 90.152 320.932 90.034 C 321.014 89.917 321.058 89.777 321.058 89.633 V 78.567 C 321.058 78.423 321.014 78.283 320.932 78.166 C 320.849 78.048 320.733 77.958 320.598 77.909 C 320.463 77.860 320.316 77.854 320.177 77.891 C 320.038 77.928 319.914 78.007 319.822 78.117 L 317.441 80.954 C 317.375 81.033 317.287 81.089 317.188 81.116 C 317.088 81.142 316.984 81.138 316.887 81.103 C 316.791 81.068 316.707 81.004 316.649 80.920 C 316.590 80.836 316.558 80.736 316.558 80.633 V 69.567 C 316.558 69.464 316.590 69.364 316.649 69.280 C 316.707 69.196 316.791 69.132 316.887 69.097 C 316.984 69.062 317.088 69.058 317.188 69.084 C 317.287 69.111 317.375 69.167 317.441 69.246 L 319.822 72.083 C 319.914 72.193 320.038 72.272 320.177 72.309 C 320.316 72.346 320.463 72.340 320.598 72.291 C 320.733 72.242 320.849 72.152 320.932 72.034 C 321.014 71.917 321.058 71.777 321.058 71.633 V 60.567 C 321.058 60.423 321.014 60.283 320.932 60.166 C 320.849 60.048 320.733 59.958 320.598 59.909 C 320.463 59.860 320.316 59.854 320.177 59.891 C 320.038 59.928 319.914 60.007 319.822 60.117 L 317.441 62.954 C 317.375 63.033 317.287 63.089 317.188 63.116 C 317.088 63.142 316.984 63.138 316.887 63.103 C 316.791 63.068 316.707 63.004 316.649 62.920 C 316.590 62.836 316.558 62.736 316.558 62.633 V 51.567 C 316.558 51.464 316.590 51.364 316.649 51.280 C 316.707 51.196 316.791 51.132 316.887 51.097 C 316.984 51.062 317.088 51.058 317.188 51.084 C 317.287 51.111 317.375 51.167 317.441 51.246 L 319.822 54.083 C 319.914 54.193 320.038 54.272 320.177 54.309 C 320.316 54.346 320.463 54.340 320.598 54.291 C 320.733 54.242 320.849 54.152 320.932 54.034 C 321.014 53.917 321.058 53.777 321.058 53.633 V 42.567 C 321.058 42.423 321.014 42.283 320.932 42.166 C 320.849 42.048 320.733 41.958 320.598 41.909 C 320.463 41.860 320.316 41.854 320.177 41.891 C 320.038 41.928 319.914 42.007 319.822 42.117 L 317.441 44.954 C 317.375 45.033 317.287 45.089 317.188 45.116 C 317.088 45.142 316.984 45.138 316.887 45.103 C 316.791 45.068 316.707 45.004 316.649 44.920 C 316.590 44.836 316.558 44.736 316.558 44.633 V 33.567 C 316.558 33.464 316.590 33.364 316.649 33.280 C 316.707 33.196 316.791 33.132 316.887 33.097 C 316.984 33.062 317.088 33.058 317.188 33.084 C 317.287 33.111 317.375 33.167 317.441 33.246 L 319.822 36.083 C 319.914 36.193 320.038 36.272 320.177 36.309 C 320.316 36.346 320.463 36.340 320.598 36.291 C 320.733 36.242 320.849 36.152 320.932 36.034 C 321.014 35.917 321.058 35.777 321.058 35.633 V 24.567 C 321.058 24.423 321.014 24.283 320.932 24.166 C 320.849 24.048 320.733 23.958 320.598 23.909 C 320.463 23.860 320.316 23.854 320.177 23.891 C 320.038 23.928 319.914 24.007 319.822 24.117 L 317.441 26.954 C 317.375 27.033 317.287 27.089 317.188 27.116 C 317.088 27.142 316.984 27.138 316.887 27.103 C 316.791 27.068 316.707 27.004 316.649 26.920 C 316.590 26.836 316.558 26.736 316.558 26.633 V 13.100 V 10.100 C 316.558 10.045 316.513 10.000 316.458 10.000 H 309.458 C 309.403 10.000 309.358 10.045 309.358 10.100 V 13.000 C 309.358 13.100 309.458 13.000 309.358 13.000 H 303.558 C 303.458 13.000 303.558 13.100 303.558 13.000 V 10.100 C 303.558 10.045 303.513 10.000 303.458 10.000 H 297.458 C 297.403 10.000 297.358 10.045 297.358 10.100 V 13.000 C 297.358 13.100 297.458 13.000 297.358 13.000 H 291.558 C 291.458 13.000 291.558 13.100 291.558 13.000 V 10.100 C 291.558 10.045 291.513 10.000 291.458 10.000 H 284.458 H 261.869 H 254.869 C 254.813 10.000 254.769 10.045 254.769 10.100 V 13.000 C 254.769 13.100 254.869 13.000 254.769 13.000 H 248.969 C 248.869 13.000 248.969 13.100 248.969 13.000 V 10.100 C 248.969 10.045 248.924 10.000 248.869 10.000 H 242.869 C 242.813 10.000 242.769 10.045 242.769 10.100 V 13.000 C 242.769 13.100 242.869 13.000 242.769 13.000 H 236.969 C 236.869 13.000 236.969 13.100 236.969 13.000 V 10.100 C 236.969 10.045 236.924 10.000 236.869 10.000 H 230.869 C 230.813 10.000 230.769 10.045 230.769 10.100 V 13.000 C 230.769 13.100 230.869 13.000 230.769 13.000 H 224.969 C 224.869 13.000 224.969 13.100 224.969 13.000 V 10.100 C 224.969 10.045 224.924 10.000 224.869 10.000 H 217.869 H 195.279 H 184.279 C 184.224 10.000 184.179 10.045 184.179 10.100 V 13.000 C 184.179 13.100 184.279 13.000 184.179 13.000 H 178.379 C 178.279 13.000 178.379 13.100 178.379 13.000 V 10.100 C 178.379 10.045 178.334 10.000 178.279 10.000 H 172.279 C 172.224 10.000 172.179 10.045 172.179 10.100 V 13.000 C 172.179 13.100 172.279 13.000 172.179 13.000 H 166.379 C 166.279 13.000 166.379 13.100 166.379 13.000 V 10.100 C 166.379 10.045 166.334 10.000 166.279 10.000 H 160.279 C 160.224 10.000 160.179 10.045 160.179 10.100 V 13.000 C 160.179 13.100 160.279 13.000 160.179 13.000 H 154.379 C 154.279 13.000 154.379 13.100 154.379 13.000 V 10.100 C 154.379 10.045 154.334 10.000 154.279 10.000 H 148.279 C 148.224 10.000 148.179 10.045 148.179 10.100 V 13.000 C 148.179 13.100 148.279 13.000 148.179 13.000 H 142.379 C 142.279 13.000 142.379 13.100 142.379 13.000 V 10.100 C 142.379 10.045 142.334 10.000 142.279 10.000 H 131.279 H 108.690 H 101.690 C 101.634 10.000 101.590 10.045 101.590 10.100 V 13.000 C 101.590 13.100 101.690 13.000 101.590 13.000 H 95.790 C 95.690 13.000 95.790 13.100 95.790 13.000 V 10.100 C 95.790 10.045 95.745 10.000 95.690 10.000 H 89.690 C 89.634 10.000 89.590 10.045 89.590 10.100 V 13.000 C 89.590 13.100 89.690 13.000 89.590 13.000 H 83.790 C 83.690 13.000 83.790 13.100 83.790 13.000 V 10.100 C 83.790 10.045 83.745 10.000 83.690 10.000 H 77.690 C 77.634 10.000 77.590 10.045 77.590 10.100 V 13.000 C 77.590 13.100 77.690 13.000 77.590 13.000 H 71.790 C 71.690 13.000 71.790 13.100 71.790 13.000 V 10.100 C 71.790 10.045 71.745 10.000 71.690 10.000 H 64.690 H 42.100 H 35.100 C 35.045 10.000 35.000 10.045 35.000 10.100 V 13.000 C 35.000 13.100 35.100 13.000 35.000 13.000 H 29.200 C 29.100 13.000 29.200 13.100 29.200 13.000 V 10.100 C 29.200 10.045 29.155 10.000 29.100 10.000 H 23.100 C 23.045 10.000 23.000 10.045 23.000 10.100 V 13.000 C 23.000 13.100 23.100 13.000 23.000 13.000 H 17.200 C 17.100 13.000 17.200 13.100 17.200 13.000 V 10.100 C 17.200 10.045 17.155 10.000 17.100 10.000 H 10.100 C 10.045 10.000 10.000 10.045 10.000 10.100 V 13.100 V 26.633 C 10.000 26.777 10.044 26.917 10.127 27.034 C 10.209 27.152 10.326 27.242 10.461 27.291 C 10.596 27.340 10.742 27.346 10.881 27.309 C 11.020 27.272 11.144 27.193 11.236 27.083 L 13.617 24.246 C 13.683 24.167 13.771 24.111 13.871 24.084 C 13.970 24.058 14.075 24.062 14.171 24.097 C 14.267 24.132 14.351 24.196 14.410 24.280 C 14.468 24.364 14.500 24.464 14.500 24.567 V 35.633 C 14.500 35.736 14.468 35.836 14.410 35.920 C 14.351 36.004 14.267 36.068 14.171 36.103 C 14.075 36.138 13.970 36.142 13.871 36.116 C 13.771 36.089 13.683 36.033 13.617 35.954 L 11.236 33.117 C 11.144 33.007 11.020 32.928 10.881 32.891 C 10.742 32.854 10.596 32.860 10.461 32.909 C 10.326 32.958 10.209 33.048 10.127 33.166 C 10.044 33.283 10.000 33.423 10.000 33.567 V 44.633 C 10.000 44.777 10.044 44.917 10.127 45.034 C 10.209 45.152 10.326 45.242 10.461 45.291 C 10.596 45.340 10.742 45.346 10.881 45.309 C 11.020 45.272 11.144 45.193 11.236 45.083 L 13.617 42.246 C 13.683 42.167 13.771 42.111 13.871 42.084 C 13.970 42.058 14.075 42.062 14.171 42.097 C 14.267 42.132 14.351 42.196 14.410 42.280 C 14.468 42.364 14.500 42.464 14.500 42.567 V 53.633 C 14.500 53.736 14.468 53.836 14.410 53.920 C 14.351 54.004 14.267 54.068 14.171 54.103 C 14.075 54.138 13.970 54.142 13.871 54.116 C 13.771 54.089 13.683 54.033 13.617 53.954 L 11.236 51.117 C 11.144 51.007 11.020 50.928 10.881 50.891 C 10.742 50.854 10.596 50.860 10.461 50.909 C 10.326 50.958 10.209 51.048 10.127 51.166 C 10.044 51.283 10.000 51.423 10.000 51.567 V 62.633 C 10.000 62.777 10.044 62.917 10.127 63.034 C 10.209 63.152 10.326 63.242 10.461 63.291 C 10.596 63.340 10.742 63.346 10.881 63.309 C 11.020 63.272 11.144 63.193 11.236 63.083 L 13.617 60.246 C 13.683 60.167 13.771 60.111 13.871 60.084 C 13.970 60.058 14.075 60.062 14.171 60.097 C 14.267 60.132 14.351 60.196 14.410 60.280 C 14.468 60.364 14.500 60.464 14.500 60.567 V 71.633 C 14.500 71.736 14.468 71.836 14.410 71.920 C 14.351 72.004 14.267 72.068 14.171 72.103 C 14.075 72.138 13.970 72.142 13.871 72.116 C 13.771 72.089 13.683 72.033 13.617 71.954 L 11.236 69.117 C 11.144 69.007 11.020 68.928 10.881 68.891 C 10.742 68.854 10.596 68.860 10.461 68.909 C 10.326 68.958 10.209 69.048 10.127 69.166 C 10.044 69.283 10.000 69.423 10.000 69.567 V 80.633 C 10.000 80.777 10.044 80.917 10.127 81.034 C 10.209 81.152 10.326 81.242 10.461 81.291 C 10.596 81.340 10.742 81.346 10.881 81.309 C 11.020 81.272 11.144 81.193 11.236 81.083 L 13.617 78.246 C 13.683 78.167 13.771 78.111 13.871 78.084 C 13.970 78.058 14.075 78.062 14.171 78.097 C 14.267 78.132 14.351 78.196 14.410 78.280 C 14.468 78.364 14.500 78.464 14.500 78.567 V 89.633 C 14.500 89.736 14.468 89.836 14.410 89.920 C 14.351 90.004 14.267 90.068 14.171 90.103 C 14.075 90.138 13.970 90.142 13.871 90.116 C 13.771 90.089 13.683 90.033 13.617 89.954 L 11.236 87.117 C 11.144 87.007 11.020 86.928 10.881 86.891 C 10.742 86.854 10.596 86.860 10.461 86.909 C 10.326 86.958 10.209 87.048 10.127 87.166 C 10.044 87.283 10.000 87.423 10.000 87.567 V 98.633 C 10.000 98.777 10.044 98.917 10.127 99.034 C 10.209 99.152 10.326 99.242 10.461 99.291 C 10.596 99.340 10.742 99.346 10.881 99.309 C 11.020 99.272 11.144 99.193 11.236 99.083 L 13.617 96.246 C 13.683 96.167 13.771 96.111 13.871 96.084 C 13.970 96.058 14.075 96.062 14.171 96.097 C 14.267 96.132 14.351 96.196 14.410 96.280 C 14.468 96.364 14.500 96.464 14.500 96.567 V 107.633 C 14.500 107.736 14.468 107.836 14.410 107.920 C 14.351 108.004 14.267 108.068 14.171 108.103 C 14.075 108.138 13.970 108.142 13.871 108.116 C 13.771 108.089 13.683 108.033 13.617 107.954 L 11.236 105.117 C 11.144 105.007 11.020 104.928 10.881 104.891 C 10.742 104.854 10.596 104.860 10.461 104.909 C 10.326 104.958 10.209 105.048 10.127 105.166 C 10.044 105.283 10.000 105.423 10.000 105.567 V 116.633 C 10.000 116.777 10.044 116.917 10.127 117.034 C 10.209 117.152 10.326 117.242 10.461 117.291 C 10.596 117.340 10.742 117.346 10.881 117.309 C 11.020 117.272 11.144 117.193 11.236 117.083 L 13.617 114.246 C 13.683 114.167 13.771 114.111 13.871 114.084 C 13.970 114.058 14.075 114.062 14.171 114.097 C 14.267 114.132 14.351 114.196 14.410 114.280 C 14.468 114.364 14.500 114.464 14.500 114.567 V 125.633 C 14.500 125.736 14.468 125.836 14.410 125.920 C 14.351 126.004 14.267 126.068 14.171 126.103 C 14.075 126.138 13.970 126.142 13.871 126.116 C 13.771 126.089 13.683 126.033 13.617 125.954 L 11.236 123.117 C 11.144 123.007 11.020 122.928 10.881 122.891 C 10.742 122.854 10.596 122.860 10.461 122.909 C 10.326 122.958 10.209 123.048 10.127 123.166 C 10.044 123.283 10.000 123.423 10.000 123.567 V 137.100 V 140.100 C 10.000 140.155 10.045 140.200 10.100 140.200"
       stroke="rgb(0,0,0)"
       stroke-width="0.20"
       id="path30"
       style="stroke:#000000;stroke-opacity:1;stroke-width:0.019;stroke-miterlimit:4;stroke-dasharray:none" />
    <path
       d="M 43.645 140.200 V 124.300 M 43.645 121.300 V 92.500 M 43.645 89.500 V 60.700 M 43.645 57.700 V 28.900 M 43.645 25.900 V 10.000 M 45.145 13.000 V 41.800 M 45.145 44.800 V 73.600 M 45.145 76.600 V 105.400 M 45.145 108.400 V 137.200 M 46.645 140.200 V 124.300 M 46.645 121.300 V 92.500 M 46.645 89.500 V 60.700 M 46.645 57.700 V 28.900 M 46.645 25.900 V 10.000 M 48.145 13.000 V 41.800 M 48.145 44.800 V 73.600 M 48.145 76.600 V 105.400 M 48.145 108.400 V 137.200 M 49.645 140.200 V 124.300 M 49.645 121.300 V 92.500 M 49.645 89.500 V 60.700 M 49.645 57.700 V 28.900 M 49.645 25.900 V 10.000 M 51.145 13.000 V 41.800 M 51.145 44.800 V 73.600 M 51.145 76.600 V 105.400 M 51.145 108.400 V 137.200 M 52.645 140.200 V 124.300 M 52.645 121.300 V 92.500 M 52.645 89.500 V 60.700 M 52.645 57.700 V 28.900 M 52.645 25.900 V 10.000 M 54.145 13.000 V 41.800 M 54.145 44.800 V 73.600 M 54.145 76.600 V 105.400 M 54.145 108.400 V 137.200 M 55.645 140.200 V 124.300 M 55.645 121.300 V 92.500 M 55.645 89.500 V 60.700 M 55.645 57.700 V 28.900 M 55.645 25.900 V 10.000 M 57.145 13.000 V 41.800 M 57.145 44.800 V 73.600 M 57.145 76.600 V 105.400 M 57.145 108.400 V 137.200 M 58.645 140.200 V 124.300 M 58.645 121.300 V 92.500 M 58.645 89.500 V 60.700 M 58.645 57.700 V 28.900 M 58.645 25.900 V 10.000 M 60.145 13.000 V 41.800 M 60.145 44.800 V 73.600 M 60.145 76.600 V 105.400 M 60.145 108.400 V 137.200 M 61.645 140.200 V 124.300 M 61.645 121.300 V 92.500 M 61.645 89.500 V 60.700 M 61.645 57.700 V 28.900 M 61.645 25.900 V 10.000 M 63.145 13.000 V 41.800 M 63.145 44.800 V 73.600 M 63.145 76.600 V 105.400 M 63.145 108.400 V 137.200"
       stroke="rgb(0,0,0)"
       stroke-width="0.20"
       id="path32"
       style="stroke:#000000;stroke-opacity:1;stroke-width:0.019;stroke-miterlimit:4;stroke-dasharray:none" />
    <path
       d="m 110.234,140.2 v -15.9 m 0,-3 V 92.5 m 0,-3 V 60.7 m 0,-3 V 28.9 m 0,-3 V 10 m 1.5,3 v 28.8 m 0,3 v 28.8 m 0,3 v 28.8 m 0,3 v 28.8 m 1.5,3 v -15.9 m 0,-3 V 92.5 m 0,-3 V 60.7 m 0,-3 V 28.9 m 0,-3 V 10 m 1.5,3 v 28.8 m 0,3 v 28.8 m 0,3 v 28.8 m 0,3 v 28.8 m 1.5,3 v -15.9 m 0,-3 V 92.5 m 0,-3 V 60.7 m 0,-3 V 28.9 m 0,-3 V 10 m 1.5,3 v 28.8 m 0,3 v 28.8 m 0,3 v 28.8 m 0,3 v 28.8 m 1.5,3 v -15.9 m 0,-3 V 92.5 m 0,-3 V 60.7 m 0,-3 V 28.9 m 0,-3 V 10 m 1.5,3 v 28.8 m 0,3 v 28.8 m 0,3 v 28.8 m 0,3 v 28.8 m 1.5,3 v -15.9 m 0,-3 V 92.5 m 0,-3 V 60.7 m 0,-3 V 28.9 m 0,-3 V 10 m 1.5,3 v 15.45 m 0,79.95 v 28.8 m 1.5,3 v -15.9 m 0,-3 0.15,-10.2 m -0.15,-85.2 V 10 m 1.5,3 0.15,15.75 m -0.15,79.65 v 28.8 m 1.5,3 v -15.9 m 0,-3 v -10.35 m 0,-85.05 V 10 m 1.5,3 -0.15,15.75 m 0.15,79.65 v 28.8"
       stroke="#000000"
       stroke-width="0.2"
       id="path34"
       sodipodi:nodetypes="cccccccccccccccccccccccccccccccccccccccccccccccccccccccccccccccccccccccccccccccccccccccccccccccccccccccccc"
       style="stroke:#000000;stroke-opacity:1;stroke-width:0.019;stroke-miterlimit:4;stroke-dasharray:none" />
    <path
       d="m 196.824,140.2 v -15.9 m 0,-3 v -9.15 m 0,-86.25 V 10 m 1.5,3 v 15.45 m 0,79.95 v 28.8 m 1.5,3 v -15.9 m 0,-3 -0.15,-9.3 m 0.15,-86.1 V 10 m 1.5,3 -0.3,15.45 m 0.3,79.95 v 28.8 m 1.5,3 v -15.9 m 0,-3 v -9 m 0,-86.4 V 10 m 1.5,3 v 28.8 m 0,3 v 28.8 m 0,3 v 28.8 m 0,3 v 28.8 m 1.5,3 v -15.9 m 0,-3 V 92.5 m 0,-3 V 60.7 m 0,-3 V 28.9 m 0,-3 V 10 m 1.5,3 v 28.8 m 0,3 v 28.8 m 0,3 v 28.8 m 0,3 v 28.8 m 1.5,3 v -15.9 m 0,-3 V 92.5 m 0,-3 V 60.7 m 0,-3 V 28.9 m 0,-3 V 10 m 1.5,3 v 28.8 m 0,3 v 28.8 m 0,3 v 28.8 m 0,3 v 28.8 m 1.5,3 v -15.9 m 0,-3 V 92.5 m 0,-3 V 60.7 m 0,-3 V 28.9 m 0,-3 V 10 m 1.5,3 v 28.8 m 0,3 v 28.8 m 0,3 v 28.8 m 0,3 v 28.8 m 1.5,3 v -15.9 m 0,-3 V 92.5 m 0,-3 V 60.7 m 0,-3 V 28.9 m 0,-3 V 10 m 1.5,3 v 28.8 m 0,3 v 28.8 m 0,3 v 28.8 m 0,3 v 28.8"
       stroke="#000000"
       stroke-width="0.2"
       id="path36"
       sodipodi:nodetypes="cccccccccccccccccccccccccccccccccccccccccccccccccccccccccccccccccccccccccccccccccccccccccccccccccccccccccc"
       style="stroke:#000000;stroke-opacity:1;stroke-width:0.019;stroke-miterlimit:4;stroke-dasharray:none" />
    <path
       d="M 263.413 140.200 V 124.300 M 263.413 121.300 V 92.500 M 263.413 89.500 V 60.700 M 263.413 57.700 V 28.900 M 263.413 25.900 V 10.000 M 264.913 13.000 V 41.800 M 264.913 44.800 V 73.600 M 264.913 76.600 V 105.400 M 264.913 108.400 V 137.200 M 266.413 140.200 V 124.300 M 266.413 121.300 V 92.500 M 266.413 89.500 V 60.700 M 266.413 57.700 V 28.900 M 266.413 25.900 V 10.000 M 267.913 13.000 V 41.800 M 267.913 44.800 V 73.600 M 267.913 76.600 V 105.400 M 267.913 108.400 V 137.200 M 269.413 140.200 V 124.300 M 269.413 121.300 V 92.500 M 269.413 89.500 V 60.700 M 269.413 57.700 V 28.900 M 269.413 25.900 V 10.000 M 270.913 13.000 V 41.800 M 270.913 44.800 V 73.600 M 270.913 76.600 V 105.400 M 270.913 108.400 V 137.200 M 272.413 140.200 V 124.300 M 272.413 121.300 V 92.500 M 272.413 89.500 V 60.700 M 272.413 57.700 V 28.900 M 272.413 25.900 V 10.000 M 273.913 13.000 V 41.800 M 273.913 44.800 V 73.600 M 273.913 76.600 V 105.400 M 273.913 108.400 V 137.200 M 275.413 140.200 V 124.300 M 275.413 121.300 V 92.500 M 275.413 89.500 V 60.700 M 275.413 57.700 V 28.900 M 275.413 25.900 V 10.000 M 276.913 13.000 V 41.800 M 276.913 44.800 V 73.600 M 276.913 76.600 V 105.400 M 276.913 108.400 V 137.200 M 278.413 140.200 V 124.300 M 278.413 121.300 V 92.500 M 278.413 89.500 V 60.700 M 278.413 57.700 V 28.900 M 278.413 25.900 V 10.000 M 279.913 13.000 V 41.800 M 279.913 44.800 V 73.600 M 279.913 76.600 V 105.400 M 279.913 108.400 V 137.200 M 281.413 140.200 V 124.300 M 281.413 121.300 V 92.500 M 281.413 89.500 V 60.700 M 281.413 57.700 V 28.900 M 281.413 25.900 V 10.000 M 282.913 13.000 V 41.800 M 282.913 44.800 V 73.600 M 282.913 76.600 V 105.400 M 282.913 108.400 V 137.200"
       stroke="rgb(0,0,0)"
       stroke-width="0.20"
       id="path38"
       style="stroke:#000000;stroke-opacity:1;stroke-width:0.019;stroke-miterlimit:4;stroke-dasharray:none" />
  </g>
  <rect
     style="fill:none;stroke:#000000;stroke-width:0.019;stroke-miterlimit:4;stroke-dasharray:none"
     id="rect884"
     width="79.999092"
     height="79.999084"
     x="123.20046"
     y="28.400455" />
  <rect
     style="fill:none;fill-opacity:1;stroke:#000000;stroke-width:0.369454;stroke-miterlimit:4;stroke-dasharray:none"
     id="rect914"
     width="40.522564"
     height="37.63208"
     x="219.64218"
     y="150.52887" />
  <rect
     style="fill:none;fill-opacity:1;stroke:#000000;stroke-width:0.384451;stroke-miterlimit:4;stroke-dasharray:none"
     id="rect914-3"
     width="43.207565"
     height="38.217083"
     x="262.78015"
     y="149.93637" />
  <rect
     style="fill:none;fill-opacity:1;stroke:#000000;stroke-width:0.375546;stroke-miterlimit:4;stroke-dasharray:none"
     id="rect914-3-4"
     width="86.513252"
     height="18.212831"
     x="219.88702"
     y="190.57762" />
  <ellipse
     style="fill:none;fill-opacity:1;stroke:#000000;stroke-width:0.019;stroke-miterlimit:4;stroke-dasharray:none"
     id="path1062-7"
     cx="239.57861"
     cy="199.08646"
     rx="6.1969509"
     ry="6.1969519" />
  <g
     aria-label="SEND!"
     transform="matrix(0.89013767,0,0,1.1234217,182.34611,110.14937)"
     id="text25936"
     style="font-size:16.6595px;line-height:1.25;letter-spacing:0px;word-spacing:0px;stroke-width:0.347073">
    <path
       d="m 80.194062,79.989324 q -0.699569,-0.707703 -0.984277,-1.252716 -0.284708,-0.553148 -0.284708,-1.179506 0,-0.943605 0.569416,-1.773326 0.577552,-0.829721 1.537425,-1.317792 0.968008,-0.488071 2.074303,-0.488071 1.252716,0 1.927882,0.520609 0.675165,0.520609 0.675165,1.472348 0,0.455534 -0.244036,0.943605 -0.244035,0.488071 -0.675165,0.911066 -0.292843,0.292843 -0.545013,0.447399 -0.25217,0.146421 -0.422995,0.146421 -0.211498,0 -0.211498,-0.325381 0,0.0081 0.03254,-0.25217 0.04881,-0.382322 0.04881,-0.6833 0,-0.422995 -0.130153,-0.84599 -0.122018,-0.431129 -0.325381,-0.715838 -0.195228,-0.292842 -0.374188,-0.292842 -0.08948,0 -0.203363,0.138286 -0.219632,0.227767 -0.34165,0.569417 -0.122017,0.333515 -0.122017,0.626358 0,0.366054 0.105748,0.6833 0.105749,0.309112 0.366054,0.634493 0.260305,0.32538 0.691434,0.715837 0.6833,0.618224 1.049353,1.081892 0.374188,0.463668 0.545013,0.927335 0.170825,0.455533 0.170825,0.992412 0,0.943604 -0.496205,1.822133 -0.496206,0.878528 -1.317793,1.423541 -0.813452,0.536878 -1.683846,0.536878 -0.829721,0 -1.61877,-0.357919 -0.789048,-0.357918 -1.480483,-1.024949 -0.715837,-0.707704 -0.715837,-1.252717 0,-0.333515 0.317246,-0.650761 0.325381,-0.325381 0.797183,-0.553148 0.479937,-0.227766 0.805318,-0.227766 0.187094,0 0.317246,0.09761 0.130152,0.08948 0.227767,0.317246 0.105748,0.219632 0.203363,0.601955 0.154556,0.545013 0.284708,0.813452 0.130152,0.260305 0.366053,0.520609 0.244036,0.244036 0.512475,0.244036 0.325381,0 0.512475,-0.25217 0.187094,-0.260305 0.187094,-0.707704 0,-0.699568 -0.496206,-1.399137 -0.146421,-0.235901 -0.325381,-0.414861 -0.170825,-0.187094 -0.75651,-0.707703 -0.17896,-0.146422 -0.569417,-0.512475 z"
       style="font-family:Forte;-inkscape-font-specification:Forte"
       id="path31302" />
    <path
       d="m 93.087279,81.518614 -2.969101,-0.01627 v 0.203363 q 0,0.59382 0.34165,1.081891 0.34165,0.479937 0.756511,0.479937 0.422995,0 1.220178,-0.309112 0.805318,-0.309112 1.830267,-0.886663 l 0.284709,-0.170825 q 0.292842,-0.16269 0.398591,-0.244035 0.479937,-0.300977 0.601955,-0.300977 0.146421,0 0.146421,0.268439 0,0.292843 -0.105749,0.667031 -0.105748,0.374188 -0.268439,0.723972 -0.16269,0.34165 -0.325381,0.488071 -0.463667,0.414861 -1.586231,0.902932 -1.122564,0.488071 -2.277666,0.764645 -0.390457,0.08134 -0.715838,0.08134 -1.11443,0 -2.041765,-0.447398 -0.919201,-0.455534 -1.431676,-1.244582 -0.50434,-0.789049 -0.50434,-1.757057 0,-0.797183 0.333515,-1.757056 0.333515,-0.959874 0.93547,-1.911613 0.601955,-0.959874 1.358465,-1.740788 0.658896,-0.683299 1.472348,-1.236447 0.813453,-0.561282 1.578098,-0.862259 0.772779,-0.300977 1.415406,-0.300977 1.008681,0 1.724519,0.577551 0.723972,0.569416 0.723972,1.382868 0,0.357919 -0.130152,0.780914 -0.130152,0.422995 -0.349784,0.740242 -0.227767,0.34165 -0.675166,0.667031 -0.447398,0.32538 -1.00868,0.561282 -0.675166,0.268439 -1.155102,0.268439 -0.479937,0 -0.479937,-0.235901 0,-0.138287 0.268439,-0.43113 0.292843,-0.260305 0.561282,-0.715838 0.260305,-0.479937 0.455533,-1.130698 0.195229,-0.650762 0.195229,-1.016816 0,-0.300977 -0.17896,-0.300977 -0.284708,0 -1.024949,0.626358 -0.740242,0.626358 -1.171372,1.236448 -0.406726,0.569416 -0.66703,1.163236 -0.260305,0.585686 -0.349785,1.155102 h 4.343835 q 0.715838,0 0.715838,0.366054 0,0.34165 -0.797183,1.114429 -0.789049,0.715838 -1.447945,0.715838 z"
       style="font-family:Forte;-inkscape-font-specification:Forte"
       id="path31304" />
    <path
       d="m 98.122548,81.339655 0.561282,-1.537425 0.772779,-1.96042 q 0.398592,-1.065622 0.715841,-1.683846 0.22776,-0.439264 0.22776,-0.618223 0,-0.235901 -0.38232,-0.512475 -0.252169,-0.170825 -0.252169,-0.300978 0,-0.16269 0.504339,-0.349784 0.43113,-0.178959 0.98428,-0.309112 0.55315,-0.138287 0.8948,-0.138287 0.6833,0 1.03308,0.366054 0.40673,0.41486 1.00055,2.578643 0.24403,0.878529 0.53687,1.700115 0.30098,0.821587 0.49621,1.179506 0.0569,0.130152 0.30098,0.50434 0.26844,-0.854125 0.63449,-2.236993 0.53688,-2.180052 0.98428,-2.944697 0.13828,-0.244036 0.31724,-0.43113 0.33352,-0.309112 0.71584,-0.471802 0.39046,-0.16269 0.78092,-0.16269 0.2359,0 0.32538,0.122017 0.0895,0.122018 0.0895,0.439265 0,0.235901 -0.0325,0.349784 -0.0814,0.422995 -0.28471,1.09816 -0.20336,0.667031 -0.57755,1.724519 -0.36605,1.049353 -0.9192,2.546105 l -0.12202,0.300978 q -0.0651,0.195228 -0.11388,0.317246 -0.98428,2.757603 -1.49675,3.579189 -0.10575,0.170825 -0.25217,0.317247 -0.25218,0.25217 -0.49621,0.25217 -0.62636,0 -1.35033,-1.334062 -1.31779,-2.391549 -2.06617,-4.913251 -0.15456,-0.471802 -0.2359,-0.886663 h -0.0325 l -0.98428,3.099253 q -0.0163,0.08134 -0.0651,0.211498 -0.0488,0.122018 -0.0814,0.235901 -0.0325,0.08948 -0.0813,0.203363 -0.0407,0.105749 -0.0732,0.178959 -0.268443,0.813453 -0.439268,1.228313 -0.170825,0.406726 -0.34165,0.675165 -0.146421,0.252171 -0.431129,0.545013 -0.414861,0.382323 -0.919201,0.601955 -0.50434,0.219632 -1.000546,0.219632 -0.414861,0 -0.414861,-0.333515 0,-0.252171 0.366054,-0.870394 0.422995,-0.707704 0.951739,-1.944151 0.08948,-0.260304 0.25217,-0.634492 z"
       style="font-family:Forte;-inkscape-font-specification:Forte"
       id="path31306" />
    <path
       d="m 115.40841,75.775642 -1.63504,6.182236 q -0.0163,0.05694 -0.0651,0.300977 -0.14642,0.642628 -0.33351,0.992412 -0.13016,0.268439 -0.41486,0.618224 0.2359,0.01627 0.52874,0.01627 0.7077,0 1.17951,-0.08948 0.4718,-0.09761 0.87852,-0.325381 0.40673,-0.227766 0.76465,-0.585685 0.67516,-0.691435 1.03308,-1.602501 0.36606,-0.911067 0.36606,-1.976689 0,-0.976142 -0.29285,-1.773326 -0.29284,-0.797183 -0.81345,-1.252716 -0.52061,-0.463668 -1.19577,-0.50434 z m -5.49894,8.093849 1.93602,-6.532021 q 0.21149,-0.756511 0.43113,-1.065622 0.13828,-0.17896 0.36605,-0.300978 v -0.03254 h -0.11388 q -0.2359,0 -0.98428,0.268439 -0.82159,0.284709 -1.1307,0.284709 -0.16269,0 -0.22777,-0.05694 -0.0569,-0.05694 -0.0569,-0.195228 0,-0.325381 0.17896,-0.707704 0.1871,-0.390457 0.47994,-0.699569 0.29284,-0.309112 0.60195,-0.439264 0.70771,-0.276574 1.91975,-0.43113 1.21204,-0.154555 2.63559,-0.154555 1.52929,0 2.60304,0.479936 1.07376,0.479937 1.62691,1.423542 0.56128,0.943604 0.56128,2.277666 0,1.342196 -0.53688,2.708795 -0.52874,1.358465 -1.40727,2.277666 -2.05804,2.180052 -5.49894,2.180052 -1.10629,0 -2.02549,-0.178959 -0.91107,-0.17896 -1.20391,-0.439265 -0.1871,-0.146421 -0.1871,-0.431129 0,-0.07321 0.0325,-0.235901 z"
       style="font-family:Forte;-inkscape-font-specification:Forte"
       id="path31308" />
    <path
       d="m 122.59119,82.201914 q -0.55315,0 -0.55315,-0.545013 0,-0.138287 0.0895,-0.536879 0.66703,-2.895889 1.43168,-4.994596 0.17896,-0.520609 0.43113,-0.797183 0.30097,-0.325381 0.92733,-0.553147 0.62636,-0.235901 1.22018,-0.235901 0.55315,0 0.55315,0.382322 0,0.439264 -1.09816,3.205002 -1.13884,2.806409 -1.3178,3.05858 -0.16269,0.235901 -0.48807,0.471802 -0.32538,0.235901 -0.65889,0.390457 -0.33352,0.154556 -0.53688,0.154556 z m -0.58569,3.034176 q -0.30911,0 -0.50434,-0.170825 -0.19523,-0.178959 -0.19523,-0.463667 0,-0.504341 0.53688,-1.334062 0.0976,-0.146421 0.19523,-0.244036 0.24404,-0.244035 0.61822,-0.398591 0.37419,-0.154556 0.71584,-0.154556 0.32538,0 0.52061,0.138287 0.19523,0.138287 0.19523,0.366053 0,0.276574 -0.14642,0.699569 -0.14642,0.414861 -0.34979,0.748376 -0.11388,0.187094 -0.38232,0.366054 -0.66703,0.447398 -1.20391,0.447398 z"
       style="font-family:Forte;-inkscape-font-specification:Forte"
       id="path31310" />
  </g>
  <circle
     id="path1062"
     class="st2"
     cx="239.95474"
     cy="170.83432"
     style="fill:none;stroke:#010101;stroke-width:0.01905;stroke-miterlimit:288"
     r="3.5454166" />
  <path
     id="path1189"
     class="st7"
     d="m 230.74724,181.60285 c -0.0529,0 -0.18521,-0.0265 -0.26458,-0.0529 -0.44979,-0.0794 -0.82021,-0.26459 -1.16417,-0.58209 -0.55562,-0.50271 -0.84667,-1.11125 -0.84667,-1.82562 0,-0.68792 0.23813,-1.24354 0.74084,-1.71979 0.39687,-0.39688 0.82021,-0.60855 1.37583,-0.71438 0.15875,-0.0265 0.58208,-0.0265 0.76729,0 0.55563,0.0794 1.03188,0.29104 1.45521,0.71438 0.50271,0.47625 0.74083,1.05833 0.74083,1.74625 0,0.42333 -0.0794,0.79375 -0.29104,1.16416 -0.26458,0.44979 -0.68791,0.84667 -1.13771,1.08479 -0.21166,0.10584 -0.37041,0.15875 -0.60854,0.18521 -0.15875,0.0265 -0.23812,0.0265 -0.42333,0.0529 -0.15875,-0.0265 -0.29104,-0.0265 -0.34396,-0.0529 z m 0.71438,-0.3175 c 0.26458,-0.0529 0.5027,-0.15875 0.68791,-0.26458 0.55563,-0.34396 0.92604,-0.87313 1.03188,-1.42875 0.0529,-0.26458 0.0529,-0.58208 0,-0.84667 -0.10584,-0.635 -0.635,-1.29646 -1.29646,-1.56104 -0.29104,-0.13229 -0.55563,-0.18521 -0.89958,-0.18521 -0.39688,0 -0.74084,0.0794 -1.05834,0.23813 -0.3175,0.15875 -0.635,0.44979 -0.82021,0.76729 -0.34395,0.50271 -0.42333,1.19062 -0.23812,1.79917 0.13229,0.39687 0.42333,0.8202 0.82021,1.08479 0.26458,0.21166 0.52916,0.3175 0.87312,0.37041 0.21167,0.0529 0.21167,0.0529 0.50271,0.0265 0.21167,0.0265 0.26458,0.0265 0.39688,0 z m -0.66146,-0.55562 c -0.34396,-0.0794 -0.68792,-0.29104 -1.08479,-0.66146 l -0.15875,-0.13229 -0.0529,0.0529 c -0.0529,0.0529 -0.10583,0.0794 -0.18521,0.0794 -0.0529,0 -0.13229,-0.0529 -0.13229,-0.0794 -0.0265,-0.0529 -0.0265,-0.10583 0.0265,-0.15875 0.0265,-0.0264 0.0794,-0.0794 0.10583,-0.15875 0.0529,-0.0529 0.10583,-0.15875 0.15875,-0.21166 0.0265,-0.0794 0.0794,-0.13229 0.10583,-0.15875 0.0529,-0.0265 0.10584,-0.0265 0.15875,0 0.0529,0.0265 0.0794,0.10583 0.0794,0.15875 0,0.0529 0,0.0794 -0.10583,0.21166 l -0.0265,0.0529 0.0529,0.0529 c 0.10584,0.0794 0.3175,0.23812 0.47625,0.34396 0.1323,0.0794 0.23813,0.13229 0.34396,0.15875 0.34396,0.10583 0.71438,0.10583 1.05834,-0.0794 0.21166,-0.10583 0.60854,-0.37042 0.68791,-0.47625 0.0265,-0.0265 0.0265,-0.0265 0,-0.0529 0,-0.0265 -0.0529,-0.0794 -0.0794,-0.10583 -0.0529,-0.0794 -0.0529,-0.10583 -0.0529,-0.15875 0,-0.10583 0.10583,-0.18521 0.18521,-0.18521 0.0529,0.0265 0.0794,0.0529 0.15875,0.15875 0.0265,0.0794 0.10583,0.15875 0.15875,0.21167 0.0529,0.0529 0.10583,0.13229 0.10583,0.15875 0.0529,0.0529 0.0529,0.13229 0.0265,0.18521 -0.0265,0.0265 -0.10583,0.0794 -0.13229,0.0794 -0.0529,0 -0.13229,-0.0265 -0.15875,-0.0794 l -0.0529,-0.0529 -0.15875,0.13229 c -0.39687,0.37042 -0.66146,0.52917 -0.9525,0.635 -0.10583,0.0265 -0.13229,0.0529 -0.3175,0.0529 -0.10583,0.0265 -0.21166,0.0265 -0.23812,0.0265 z m -0.60854,-1.77271 c -0.1323,-0.0794 -0.23813,-0.34396 -0.23813,-0.66146 0,-0.39687 0.13229,-0.68792 0.3175,-0.68792 0.13229,0 0.21167,0.10584 0.29104,0.34396 0.0265,0.10584 0.0529,0.42334 0.0265,0.55563 -0.0265,0.13229 -0.0794,0.26458 -0.13229,0.34396 -0.0529,0.0529 -0.13229,0.10583 -0.18521,0.10583 -0.0265,0.0265 -0.0529,0 -0.0794,0 z m 1.48166,0 c -0.0794,-0.0265 -0.13229,-0.10583 -0.15875,-0.21167 -0.0529,-0.13229 -0.0794,-0.26458 -0.0794,-0.50271 0,-0.1852 0.0265,-0.26458 0.0794,-0.37041 0.0794,-0.15875 0.15875,-0.23813 0.26459,-0.23813 0.3175,0 0.44979,0.82021 0.1852,1.21709 -0.0794,0.10583 -0.1852,0.15875 -0.29104,0.10583 z"
     style="fill:#010101;stroke-width:0.264583" />
  <path
     id="path1846"
     class="st7"
     d="m 248.5537,181.49702 c -0.10583,0 -0.37042,-0.0529 -0.50271,-0.10583 -0.26458,-0.0794 -0.39687,-0.18521 -0.50271,-0.37042 -0.0529,-0.10583 -0.0529,-0.10583 -0.0529,-0.23813 0,-0.13229 0,-0.15875 0.0529,-0.26458 0.0794,-0.15875 0.18521,-0.29104 0.34396,-0.37042 0.10583,-0.0529 0.10583,-0.0794 0.10583,-0.10583 -0.0529,-0.15875 -0.0529,-0.21167 -0.0529,-0.3175 0,-0.0794 0,-0.15875 0.0265,-0.21167 0.0529,-0.1852 0.21166,-0.34395 0.39687,-0.44979 l 0.0794,-0.0529 v -0.15875 c 0,-0.18521 0.0264,-0.23813 0.13229,-0.37042 0.0794,-0.0794 0.23812,-0.18521 0.34396,-0.21167 0.0529,0 0.0529,0 0.0529,-0.0794 0,-0.0265 0,-0.10584 0.0265,-0.13229 0.0265,-0.10584 0.13229,-0.3175 0.21167,-0.42334 0.10583,-0.13229 0.26458,-0.3175 0.39687,-0.42333 0.10584,-0.10583 0.3175,-0.21167 0.34396,-0.21167 0,0 0.0529,0 0.0794,-0.0265 0.0529,-0.0265 0.23812,-0.0529 0.3175,-0.0265 0.0794,0.0265 0.0794,0.0529 0.0264,0.15875 -0.0529,0.15875 -0.0529,0.1852 0.0529,0.37041 0.10583,0.18521 0.13229,0.26459 0.13229,0.39688 v 0.10583 l 0.13229,0.0794 c 0.18521,0.10583 0.3175,0.23812 0.37042,0.39687 0.0529,0.10583 0.0529,0.13229 0.0529,0.26458 0,0.0794 0,0.15875 -0.0265,0.21167 l -0.0265,0.0794 0.10583,0.0529 c 0.1323,0.0529 0.26459,0.18521 0.3175,0.29104 0.0794,0.1323 0.0794,0.23813 0.0794,0.42334 0,0.0794 0,0.18521 -0.0265,0.21166 0,0.0265 0,0.0529 0.0794,0.0794 0.3175,0.18521 0.47625,0.47625 0.44979,0.82021 -0.0265,0.15875 -0.0529,0.23812 -0.10584,0.3175 -0.13229,0.15875 -0.26458,0.23812 -0.52916,0.23812 -0.18521,0 -0.23813,0 -0.71438,-0.10583 l -0.18521,-0.0265 -0.44979,0.0529 c -0.23812,0.0265 -0.52916,0.0529 -0.635,0.0794 -0.18521,0.0529 -0.74083,0.0529 -0.89958,0.0529 z m 0.9525,-0.13229 c 0.26458,-0.0265 0.76729,-0.0794 0.76729,-0.10584 0,0 -0.0529,-0.0265 -0.10583,-0.0265 -0.66146,-0.15875 -1.29646,-0.42334 -1.64042,-0.66146 -0.10583,-0.0794 -0.26458,-0.23813 -0.34396,-0.34396 -0.0265,-0.0265 -0.0529,-0.0529 -0.0794,-0.0265 -0.13229,0.0265 -0.34396,0.21167 -0.42334,0.37042 -0.0529,0.10583 -0.0529,0.29104 -0.0265,0.39687 0.0529,0.10584 0.1852,0.23813 0.29104,0.29104 0.37041,0.10584 0.84666,0.15875 1.56104,0.10584 z m 2.16958,-0.0529 c 0.10584,-0.0529 0.21167,-0.18521 0.23813,-0.26458 0.0794,-0.34396 0.0265,-0.60854 -0.23813,-0.79375 -0.15875,-0.10584 -0.18521,-0.13229 -0.47625,-0.13229 -0.13229,0 -0.3175,-0.0265 -0.37041,-0.0265 -0.0794,0 -0.10584,0 -0.15875,0.0265 -0.0529,0.0264 -0.10584,0.0264 -0.15875,0.0264 -0.10584,0 -0.21167,-0.0264 -0.29105,-0.13229 -0.0529,-0.0529 -0.10583,-0.0794 -0.23812,-0.13229 -0.10583,-0.0265 -0.23813,-0.10583 -0.3175,-0.13229 l -0.13229,-0.0529 -0.0529,0.10584 c -0.0529,0.13229 -0.15875,0.26458 -0.26458,0.3175 -0.10584,0.0529 -0.23813,0.0529 -0.34396,0 -0.26458,-0.1323 -0.39688,-0.52917 -0.29104,-0.89959 0.0529,-0.13229 0.0265,-0.15875 -0.0794,-0.10583 -0.10583,0.0529 -0.23812,0.15875 -0.29104,0.21167 -0.0794,0.10583 -0.10583,0.1852 -0.10583,0.3175 0,0.21166 0.0529,0.42333 0.21166,0.58208 0.3175,0.37042 0.87313,0.635 1.77271,0.87312 0.23813,0.0529 0.26459,0.0794 0.74084,0.15875 0.37041,0.0794 0.34395,0.0529 0.55562,0.0529 0.18521,0.0529 0.21167,0.0265 0.29104,0 z m -2.14312,-0.44979 c -0.18521,-0.0529 -0.3175,-0.13229 -0.47625,-0.29104 -0.13229,-0.13229 -0.13229,-0.13229 -0.13229,-0.18521 0,-0.0265 0.0265,-0.0529 0.0529,-0.0794 0.0265,-0.0264 0.0529,-0.0264 0.21167,0 0.26458,0.0265 0.84667,0.0529 1.11125,0 0.15875,-0.0264 0.18521,-0.0264 0.23812,0 0.0794,0.0529 0.0794,0.10584 0,0.21167 -0.13229,0.15875 -0.34395,0.29104 -0.52916,0.34396 -0.13229,0.0529 -0.34396,0.0265 -0.47625,0 z m 0.47625,-0.0265 c 0.15875,-0.0529 0.37041,-0.18521 0.50271,-0.3175 0.0264,-0.0265 0.0529,-0.0794 0.0529,-0.10583 0,-0.0529 -0.0529,-0.0529 -0.26458,-0.0265 -0.29104,0.0265 -0.79375,0.0265 -1.08479,0 -0.18521,-0.0265 -0.21167,-0.0265 -0.23813,0 -0.0265,0.0265 0,0.0794 0.13229,0.21167 0.26459,0.21166 0.58209,0.3175 0.89959,0.23812 z m -0.76729,-0.76729 c 0.34395,-0.18521 0.37041,-0.84667 0.0794,-1.11125 -0.26458,-0.23813 -0.635,-0.0265 -0.68792,0.42333 -0.0794,0.47625 0.26459,0.87313 0.60855,0.68792 z m -0.29105,-0.26458 c -0.0265,-0.0265 -0.0529,-0.0529 -0.0794,-0.10584 -0.0265,-0.0794 -0.0529,-0.0794 -0.0529,-0.21166 0,-0.1323 0,-0.15875 0.0529,-0.21167 0.10583,-0.18521 0.26458,-0.18521 0.37042,0 0.0265,0.0529 0.0265,0.10583 0.0265,0.21167 0,0.10583 0,0.15875 -0.0265,0.21166 -0.0529,0.10584 -0.18521,0.15875 -0.29105,0.10584 z m 1.74625,0.26458 c 0.34396,-0.18521 0.37042,-0.82021 0.0794,-1.11125 -0.23813,-0.21167 -0.55563,-0.10583 -0.66146,0.23812 -0.10583,0.29105 -0.0265,0.68792 0.18521,0.84667 0.13229,0.0794 0.26458,0.10583 0.39687,0.0265 z m -0.26458,-0.23813 c -0.15875,-0.0794 -0.21167,-0.44979 -0.0529,-0.635 0.15875,-0.1852 0.37042,0.0265 0.34396,0.3175 0,0.23813 -0.15875,0.39688 -0.29104,0.3175 z m 0.97896,0.1323 c 0.0265,-0.0794 0.0265,-0.15875 0.0265,-0.26459 0,-0.13229 0,-0.15875 -0.0529,-0.23812 -0.0529,-0.13229 -0.13229,-0.21167 -0.29104,-0.29104 -0.13229,-0.0529 -0.15875,-0.0794 -0.13229,-0.0265 0.0265,0.0794 0.0529,0.23812 0.0529,0.3175 0,0.18521 -0.0794,0.39687 -0.15875,0.52916 -0.0265,0.0265 -0.0265,0.0529 -0.0265,0.0529 0,0 0.26458,0.0265 0.42333,0.0265 h 0.15875 z m -1.32292,-0.1323 c -0.0529,-0.10583 -0.0529,-0.21166 -0.0529,-0.34395 0,-0.15875 0.0264,-0.29105 0.0794,-0.39688 0.0265,-0.0529 0.0529,-0.0794 0.0265,-0.0794 0,0 -0.0529,-0.0265 -0.10583,-0.0265 -0.21167,-0.0794 -0.55563,-0.29104 -0.82021,-0.50271 l -0.13229,-0.10583 -0.10584,0.0264 c -0.13229,0.0265 -0.21166,0.0794 -0.29104,0.15875 -0.0794,0.0794 -0.13229,0.15875 -0.13229,0.26459 0,0.10583 0.0265,0.21166 0.0529,0.23812 0,0 0.0529,-0.0265 0.10583,-0.0794 0.15875,-0.15875 0.34396,-0.21167 0.50271,-0.10584 0.21166,0.10584 0.34396,0.42334 0.3175,0.71438 v 0.0794 l 0.13229,0.0529 c 0.13229,0.0529 0.37042,0.15875 0.39687,0.15875 0.0265,0 0.0265,-0.0265 0.0265,-0.0529 z m 0.89959,-0.92604 c 0.0794,-0.29104 -0.0529,-0.55562 -0.39688,-0.74083 -0.10583,-0.0529 -0.10583,-0.0529 -0.26458,-0.0529 -0.10584,0 -0.15875,0 -0.26459,-0.0265 -0.13229,-0.0529 -0.15875,-0.0794 -0.15875,-0.10583 0,-0.0265 0.0529,0 0.1323,0.0265 0.10583,0.0265 0.13229,0.0529 0.23812,0.0529 h 0.13229 l 0.0265,-0.0529 c 0.0265,-0.13229 0,-0.23813 -0.10583,-0.39688 -0.0529,-0.0794 -0.0794,-0.13229 -0.10584,-0.15875 -0.0264,-0.0794 -0.0264,-0.1852 0,-0.26458 0.0265,-0.0265 0.0265,-0.0794 0.0265,-0.0794 0,0 -0.0265,0 -0.0529,0 -0.47625,0.0529 -1.13771,0.76729 -1.11125,1.16416 0,0.10584 0,0.0794 0.21166,0.26459 0.23813,0.21166 0.52917,0.37041 0.76729,0.44979 l 0.10584,0.0265 0.0529,-0.0529 c 0.10584,-0.0794 0.15875,-0.10583 0.26459,-0.10583 0.10583,0 0.13229,0 0.18521,0.0529 0.0529,0.0265 0.10583,0.0794 0.15875,0.13229 l 0.0794,0.0794 0.0265,-0.0529 c 0.0265,-0.0794 0.0265,-0.13229 0.0529,-0.15875 z"
     style="fill:#010101;stroke-width:0.264583" />
  <path
     id="path1746"
     class="st7"
     d="m 248.89766,164.19327 c -0.9525,-0.23813 -1.66688,-1.03188 -1.79917,-1.98438 -0.0265,-0.13229 -0.0265,-0.55562 0,-0.71437 0.0794,-0.58208 0.39688,-1.11125 0.87313,-1.50813 0.34395,-0.29104 0.74083,-0.44979 1.19062,-0.52916 0.15875,-0.0265 0.55563,-0.0265 0.71438,0 0.97895,0.13229 1.7727,0.84666 2.01083,1.77271 0.0529,0.23812 0.0794,0.34395 0.0794,0.60854 0,0.26458 -0.0264,0.37041 -0.0794,0.60854 -0.21167,0.84667 -0.89958,1.50812 -1.74625,1.74625 l -0.13229,0.0265 h -0.47625 -0.47625 z m 0.9525,-0.13229 c 0.635,-0.10584 1.21708,-0.44979 1.56104,-1.00542 0.23812,-0.37042 0.37042,-0.76729 0.37042,-1.21708 0,-0.44979 -0.10584,-0.84667 -0.37042,-1.21709 -0.37042,-0.55562 -0.9525,-0.92604 -1.61396,-1.00541 -0.10583,-0.0265 -0.42333,-0.0265 -0.52917,0 -0.5027,0.0529 -0.9525,0.29104 -1.32291,0.635 -0.37042,0.34396 -0.58209,0.82021 -0.635,1.32291 -0.0265,0.10584 -0.0265,0.42334 0,0.52917 0.0794,0.58208 0.37041,1.11125 0.82021,1.48167 0.3175,0.26458 0.74083,0.42333 1.1377,0.47625 0.1323,0.0265 0.42334,0.0265 0.58209,0 z m -1.37584,-1.19063 c -0.0264,-0.0265 -0.0529,-0.0529 -0.0529,-0.0794 0,-0.0529 0.0529,-0.0794 0.15875,-0.15875 0.44979,-0.3175 0.9525,-0.39688 1.37583,-0.26459 0.18521,0.0529 0.42333,0.18521 0.58208,0.34396 0.0529,0.0529 0.0794,0.0794 0.0794,0.10584 0,0.0529 -0.0794,0.10583 -0.13229,0.0794 -0.0265,0 -0.0529,-0.0529 -0.10584,-0.0794 -0.26458,-0.23813 -0.58208,-0.34396 -0.92604,-0.3175 -0.29104,0.0264 -0.55562,0.13229 -0.87312,0.37041 -0.0529,0 -0.0794,0.0265 -0.10584,0 z m 0.10584,-1.21708 c -0.13229,-0.0265 -0.21167,-0.13229 -0.21167,-0.26458 0,-0.15875 0.13229,-0.26459 0.29104,-0.26459 0.29104,0 0.39688,0.37042 0.13229,0.50271 -0.0265,0.0265 -0.15875,0.0529 -0.21166,0.0265 z m 1.69333,0 c -0.13229,-0.0529 -0.21167,-0.15875 -0.18521,-0.29104 0,-0.0529 0.0265,-0.10584 0.0794,-0.15875 0.13229,-0.13229 0.39687,-0.0794 0.44979,0.10583 0.0794,0.21167 -0.13229,0.42333 -0.34396,0.34396 z"
     style="fill:#010101;stroke-width:0.264583" />
  <path
     id="path1946"
     class="st7"
     d="m 240.19287,183.74598 c -0.0265,-0.0265 -0.0794,-0.10584 -0.10584,-0.13229 -0.23812,-0.29105 -0.44979,-0.52917 -1.00541,-1.00542 -0.23813,-0.21167 -0.52917,-0.50271 -0.60855,-0.635 -0.13229,-0.18521 -0.26458,-0.37042 -0.3175,-0.55563 -0.0529,-0.15875 -0.0529,-0.1852 -0.0529,-0.52916 0,-0.37042 0,-0.39688 0.0794,-0.55563 0.15875,-0.3175 0.44979,-0.58208 0.79375,-0.66146 0.0794,-0.0265 0.10584,-0.0265 0.29104,-0.0265 0.21167,0 0.21167,0 0.29105,0.0265 0.26458,0.0794 0.5027,0.23813 0.66145,0.4498 0.0265,0.0264 0.0529,0.0529 0.0529,0.0529 0,0 0.0265,-0.0265 0.0529,-0.0529 0.15875,-0.23813 0.42333,-0.39688 0.68791,-0.4498 0.0529,-0.0265 0.10584,-0.0265 0.29105,-0.0265 0.21166,0 0.21166,0 0.29104,0.0265 0.21166,0.0529 0.37041,0.15875 0.55562,0.3175 0.15875,0.15875 0.26459,0.34396 0.3175,0.55563 0.0265,0.0794 0.0265,0.10583 0.0265,0.3175 0,0.21167 0,0.23812 -0.0265,0.34396 -0.0529,0.18521 -0.13229,0.37041 -0.23812,0.55562 -0.15875,0.23813 -0.34396,0.44979 -0.79375,0.84667 -0.52917,0.47625 -0.82021,0.79375 -1.03188,1.11125 l -0.0529,0.0794 h -0.0529 -0.0529 z m 0.15875,-0.29104 c 0.23812,-0.3175 0.47625,-0.55563 0.92604,-0.97896 0.52916,-0.47625 0.74083,-0.71438 0.87312,-0.97896 0.10584,-0.18521 0.13229,-0.34396 0.15875,-0.55563 0.0265,-0.29104 -0.0529,-0.55562 -0.21166,-0.76729 -0.29105,-0.39687 -0.82021,-0.50271 -1.24355,-0.29104 -0.23812,0.10583 -0.37041,0.29104 -0.52916,0.55563 -0.0265,0.0529 -0.0529,0.0794 -0.0529,0.0794 0,0 -0.0265,-0.0529 -0.0529,-0.0794 -0.13229,-0.29105 -0.29104,-0.4498 -0.52916,-0.55563 -0.635,-0.3175 -1.40229,0.10583 -1.48167,0.84667 -0.0265,0.18521 0.0265,0.44979 0.0794,0.635 0.10583,0.3175 0.3175,0.58208 0.8202,1.03187 0.42334,0.37042 0.52917,0.47625 0.66146,0.635 0.15875,0.15875 0.29104,0.29104 0.39688,0.44979 0.0265,0.0529 0.0794,0.0794 0.0794,0.0794 0,0 0.0529,-0.0529 0.10584,-0.10583 z"
     style="fill:#010101;stroke-width:0.264583" />
  <path
     id="path2046"
     class="st7"
     d="m 230.4562,164.80181 c -0.42333,-0.0794 -0.74083,-0.34396 -0.84667,-0.74083 -0.0265,-0.10584 -0.0265,-0.15875 -0.0265,-1.64042 v -1.50812 l 0.0265,-0.10584 c 0.0265,-0.0529 0.0529,-0.13229 0.0794,-0.15875 0.0529,-0.0794 0.23812,-0.18521 0.34396,-0.23812 0.0794,-0.0265 0.34395,-0.0794 0.42333,-0.0794 0.0265,0 0.0265,-0.0265 -0.0265,-0.13229 -0.21167,-0.3175 -0.18521,-0.87312 0,-1.45521 0.0265,-0.10583 0.10583,-0.29104 0.15875,-0.44979 0.13229,-0.3175 0.18521,-0.55562 0.21167,-0.76729 0,-0.0794 0.0265,-0.15875 0.0265,-0.15875 0.0265,0 0.10583,0.18521 0.13229,0.29104 0.0529,0.18521 0.10583,0.47625 0.13229,0.68792 0.0265,0.37041 0,0.89958 -0.0794,1.27 -0.0794,0.42333 -0.21166,0.60854 -0.39687,0.66146 -0.10583,0.0264 -0.0529,0.0529 0.13229,0.0794 0.47625,0.0265 0.74083,0.18521 0.84667,0.44979 l 0.0529,0.10584 v 1.48166 c 0,1.64042 0,1.61396 -0.0794,1.82563 -0.10583,0.26458 -0.37042,0.47625 -0.66146,0.55562 -0.10583,0.0265 -0.34396,0.0529 -0.44979,0.0265 z m 0.52917,-0.23812 c 0.23812,-0.10584 0.44979,-0.3175 0.52916,-0.55563 0.0794,-0.21167 0.0794,-0.23812 0.0794,-1.61396 0,-0.71437 0,-1.29646 0,-1.29646 0,0 -0.0265,0.0265 -0.0529,0.0529 -0.37042,0.37042 -1.42875,0.37042 -1.79917,0 -0.0265,-0.0265 -0.0529,-0.0529 -0.0529,-0.0529 0,0 0,0.60855 0,1.37584 v 1.37583 l 0.0529,0.13229 c 0.10584,0.3175 0.34396,0.52917 0.66146,0.635 0.10584,0.0265 0.44979,0 0.58209,-0.0529 z m -0.0529,-3.25438 c 0.29104,-0.0529 0.52917,-0.18521 0.60854,-0.3175 0.0265,-0.0794 0.0265,-0.13229 0,-0.21167 -0.0794,-0.1852 -0.44979,-0.3175 -0.79375,-0.3175 h -0.13229 v 0.0529 c 0.0265,0.15875 0.0265,0.15875 0.15875,0.18521 0.18521,0.0265 0.3175,0.10583 0.3175,0.21167 0,0.0529 -0.0529,0.10583 -0.13229,0.15875 -0.0794,0.0529 -0.10584,0.0529 -0.3175,0.0529 -0.23813,0 -0.34396,-0.0265 -0.42334,-0.10583 -0.0529,-0.0529 -0.0529,-0.13229 0,-0.18521 0.0529,-0.0529 0.15875,-0.10583 0.23813,-0.10583 0.0529,0 0.0794,-0.0265 0.0529,-0.0529 0,-0.0265 0,-0.0794 -0.0265,-0.10583 0,-0.0794 -0.0265,-0.0794 -0.18521,-0.0529 -0.3175,0.0529 -0.58208,0.23813 -0.58208,0.42333 0,0.15875 0.15875,0.29105 0.42333,0.39688 0.18521,0 0.55562,0 0.79375,-0.0265 z m -0.15875,-0.37042 c 0.13229,-0.0265 0.18521,-0.0529 0.18521,-0.10583 0,-0.0265 -0.0794,-0.0794 -0.21167,-0.0794 -0.0794,0 -0.10583,0 -0.0794,0.0265 0,0.0265 0.0264,0.0265 0.0529,0.0529 0.0529,0 0.0794,0.0265 0.0794,0.0529 0,0.0265 -0.3175,0.0265 -0.3175,0 -0.0265,-0.0265 0,-0.0529 0.0529,-0.0529 0.0265,0 0.0265,-0.0265 0.0265,-0.0529 0,-0.0265 -0.0265,-0.0265 -0.10583,0 -0.0529,0.0265 -0.10583,0.0265 -0.13229,0.0529 -0.0265,0.0265 -0.0265,0.0265 0,0.0529 0.0794,0.0794 0.26458,0.0794 0.44979,0.0529 z m -0.29104,-0.8202 c 0,-0.0265 0,-0.0529 -0.0265,-0.10584 -0.0265,-0.0529 -0.0265,-0.15875 -0.0265,-0.3175 0,-0.37041 0.0529,-0.52916 0.23813,-0.9525 0.0529,-0.13229 0.13229,-0.29104 0.13229,-0.3175 0.0265,-0.0794 0.0529,-0.26458 0.0794,-0.39687 0,-0.0529 0,-0.0794 0.0265,-0.0529 0.0265,0.0529 0.0529,0.3175 0.0794,0.55563 l 0.0265,0.23812 v -0.15875 c 0.0265,-0.29104 -0.0265,-0.60854 -0.10583,-0.87312 -0.0794,-0.21167 -0.0794,-0.21167 -0.10583,0 -0.0265,0.23812 -0.10584,0.44979 -0.26459,0.92604 -0.15875,0.47625 -0.21166,0.66146 -0.21166,0.92604 0,0.21167 0,0.3175 0.0529,0.44979 0.0794,0.10583 0.10584,0.13229 0.10584,0.0794 z m 0.26458,0 c 0.15875,-0.10584 0.29104,-0.52917 0.3175,-1.00542 0,-0.0794 0,-0.0794 -0.0265,0.0529 -0.0794,0.42333 -0.15875,0.68791 -0.29104,0.79375 -0.0265,0.0264 -0.0529,0.0529 -0.0529,0.0529 0,0 0.0265,-0.0529 0.0794,-0.13229 0.15875,-0.23812 0.23812,-0.55562 0.23812,-1.00542 0,-0.23812 -0.0265,-0.66145 -0.0529,-0.68791 0,0 0,0.0265 -0.0265,0.0794 -0.0265,0.15875 -0.0529,0.23813 -0.18521,0.50271 -0.18521,0.37042 -0.23812,0.58208 -0.23812,0.92604 0,0.21167 0.0264,0.26459 0.0529,0.15875 0.0265,-0.10583 0.13229,-0.23812 0.15875,-0.23812 0.0529,0 0.0794,0.0265 0.0794,0.10583 0,0.0529 -0.0529,0.10583 -0.0794,0.0794 -0.0265,-0.0265 -0.10583,0.1852 -0.10583,0.29104 -0.0265,0.0794 0.0529,0.0794 0.13229,0.0265 z"
     style="fill:#010101;stroke-width:0.264583" />
  <text
     transform="scale(0.98797772,1.0121686)"
     class="st8 st9"
     id="text31"
     style="font-size:3.65963px;font-family:CenturyGothic-Bold;stroke-width:0.261402"
     x="224.92583"
     y="169.8286">OMG</text>
  <text
     class="st8 st9"
     id="text33"
     style="font-size:3.70417px;font-family:CenturyGothic-Bold;stroke-width:0.264583"
     x="250.42438"
     y="171.89508">BRB</text>
  <text
     transform="scale(1.017202,0.98308888)"
     class="st8 st10"
     id="text35"
     style="font-size:5.17498px;font-family:CenturyGothic-Bold;stroke-width:0.269135"
     x="231.46126"
     y="162.51462">LOL</text>
  <circle
     id="path1200_00000021104950032050235210000001590228241244151487_"
     class="st5"
     cx="283.43451"
     cy="170.75166"
     r="2.8045833"
     style="fill:none;stroke:#010101;stroke-width:0.023406;stroke-miterlimit:11.3386" />
  <text
     transform="matrix(0.82300177,-0.55514843,0.56330795,0.83508992,0,0)"
     class="st11 st12"
     id="text37"
     style="font-size:3.67555px;font-family:CenturyGothic;stroke-width:0.262654"
     x="126.93625"
     y="299.18427">Off</text>
  <text
     transform="matrix(0.92046171,-0.37189152,0.37733089,0.93395937,0,0)"
     class="st11 st12"
     id="text39"
     style="font-size:3.67576px;font-family:CenturyGothic;stroke-width:0.262668"
     x="184.8111"
     y="261.4505">Red</text>
  <text
     transform="matrix(0.79612345,-0.03936887,0.06196113,1.2530226,0,0)"
     class="st11 st12"
     id="text41"
     style="font-size:2.95135px;font-family:CenturyGothic;stroke-width:0.210903"
     x="324.52661"
     y="145.10239">Orange</text>
  <text
     transform="matrix(0.73485732,0.2738979,-0.44540287,1.1947967,0,0)"
     class="st11 st13"
     id="text43"
     style="font-size:2.99959px;font-family:CenturyGothic;stroke-width:0.207495"
     x="394.35324"
     y="45.152107">Yellow</text>
  <text
     transform="matrix(0.34185972,0.65207337,-1.2029606,0.63061374,0,0)"
     class="st11 st14"
     id="text45"
     style="font-size:3.19517px;font-family:CenturyGothic;stroke-width:0.194804"
     x="362.44815"
     y="-126.51456">Green</text>
  <text
     transform="matrix(0.57509301,-0.8206776,0.81718493,0.57269803,0,0)"
     class="st11 st15"
     id="text47"
     style="font-size:4.36201px;font-family:CenturyGothic;stroke-width:0.265139"
     x="29.972872"
     y="328.98254">Blue</text>
  <text
     transform="matrix(0.60105061,-0.48016456,0.81136632,1.0155728,0,0)"
     class="st11 st16"
     id="text49"
     style="font-size:3.05769px;font-family:CenturyGothic;stroke-width:0.203549"
     x="158.45813"
     y="239.39763">Indigo</text>
  <text
     transform="matrix(0.74511195,0.01279474,-0.02303905,1.3416846,0,0)"
     class="st11 st17"
     id="text51"
     style="font-size:3.15697px;font-family:CenturyGothic;stroke-width:0.197183"
     x="393.14133"
     y="123.79096">Violet</text>
  <text
     transform="matrix(0.61123059,0.42834373,-0.76892857,1.097187,0,0)"
     class="st11 st18"
     id="text53"
     style="font-size:3.15178px;font-family:CenturyGothic;stroke-width:0.197475"
     x="451.79788"
     y="-17.168377">White</text>
  <ellipse
     style="fill:none;stroke:#000000;stroke-width:0.019;stroke-miterlimit:4;stroke-dasharray:none"
     id="path169"
     cx="236.57362"
     cy="127.31384"
     rx="2.092653"
     ry="2.0926535" />
</svg>
